<mxfile host="app.diagrams.net" modified="2024-06-03T13:11:59.881Z" agent="Mozilla/5.0 (Windows NT 10.0; Win64; x64) AppleWebKit/537.36 (KHTML, like Gecko) Chrome/125.0.0.0 Safari/537.36 Edg/125.0.0.0" etag="iib_sUooBQCT3jzJL_rd" version="24.4.13" type="github">
  <diagram id="R2lEEEUBdFMjLlhIrx00" name="Page-1">
    <mxGraphModel dx="1042" dy="1717" grid="1" gridSize="10" guides="1" tooltips="1" connect="1" arrows="1" fold="1" page="1" pageScale="1" pageWidth="850" pageHeight="1100" math="0" shadow="0" extFonts="Permanent Marker^https://fonts.googleapis.com/css?family=Permanent+Marker">
      <root>
        <mxCell id="0" />
        <mxCell id="1" parent="0" />
        <mxCell id="C-vyLk0tnHw3VtMMgP7b-12" value="" style="edgeStyle=entityRelationEdgeStyle;endArrow=ERzeroToMany;startArrow=ERone;endFill=1;startFill=0;" parent="1" target="C-vyLk0tnHw3VtMMgP7b-17" edge="1">
          <mxGeometry width="100" height="100" relative="1" as="geometry">
            <mxPoint x="700" y="165" as="sourcePoint" />
            <mxPoint x="460" y="205" as="targetPoint" />
          </mxGeometry>
        </mxCell>
        <mxCell id="6WtYtiZ7n4FZfpU9vCdZ-1" value="" style="shape=image;verticalLabelPosition=bottom;labelBackgroundColor=default;verticalAlign=top;aspect=fixed;imageAspect=0;image=data:image/png,iVBORw0KGgoAAAANSUhEUgAAArwAAAGUCAYAAADXrfGFAAAAAXNSR0IArs4c6QAAAARnQU1BAACxjwv8YQUAAAAJcEhZcwAAFxEAABcRAcom8z8AAKG7SURBVHhe7f33u2RHdt57zn8wv87cmZF0Jd1LI5KSKE+5ETXy94pyV5SapMRukk02yW6294btu+G9R8F77wre20LBe1OwBVtV8KYANIA9+Qn0Km4k9zlljsuT+ebzfJ/cGTsidsSKFSveHblPnv/bT37yky6EEEIIIYRpJYI3hBBCCCFMNRG8IYQQQghhqongDSGEEEIIU00EbwghhBBCmGoieEMIIYQQwlQTwRtCCCGEEKaaCN4QQgghhDDVRPCGEEIIIYSpJoI3hBBCCCFMNRG8IYQQQghhqongDSGEEEIIU00EbwghhBBCmGoieEMIIYQQwlQTwRtCCCGEEKaaCN4QQgghhDDVRPCGEEIIIYSpJoI3hBBCCCFMNRG8IYQQQghhqongDSGEEEIIU00EbwghhBBCmGoieEMIIYQQwlQTwRtCCCGEEKaaCN4QQgghhDDVRPCGEEIIIYSpJoI3hBBCCCFMNRG8IYQQQghhqongDSGEEEIIU00EbwghhBBCmGoieEMIIYQQwlQTwRtCCCGEEKaaCN4QQgghhDDVRPCGEEIIIYSpJoI3hBBCCCFMNRG8IYQQQghhqongDSGEEEIIU82iCN533/1J173/XgjbGPKT1c777w33Ncwm77777qCfLBeuP9SuMBtYd4f8YrmI/4Xl5L1FiLcLFrzvjnjnnXe6197Y2r36+psjvIfZ5c3u9ZEvvDPmJ9PAG2++1fo33O8wO3zgA2+P4t5KiQ7Xffvtd7a1JcwSPf8b8I3lIP4Xlpc3u61vvb3geLtgwdu9/3737JZXuu8df2X3lSMv6b5+1GVhhvnSYRd3+591YxOHdkSHfGa18d577zYBf+TaW7ovHHbRYL/D7PDVUZz75tGXd488vaUbBcBBn1lqXHfDU1tazP3qmksH2xmmE/73rWMu75547sW2/g75x1LD/x58ctOoLZfG/8KS8/lDL+rW3f/kguPtwgXv6PXwxs3dr3zq8O7nPrZ/90sfPzDMMP/b/9yn+8/fPql7ZXRH5muIIZ9ZbRDudlN+Z8+zur/yP/YZ7HeYHX7+d/fvfvkPDupuvn9ji39DPrPUeK0bXf+v/c7+3S/83gGD7QzTCf/7W394cHfnI880Pxjyj6XG6/p7nmhtif+FpeYv/9be3elX39P8bsgfd5TFEbxPbe7+0Z8c3v38KPj+jd8/MMww//tv79P9lykVvL87Erx/dSToh/odZoe/RnB84qBu/QMrK3hvHl1fW37p4wcMtjNMJ8b8b48E710rLHhvGAne+F9YDv7K/xgJ3msmSPD+408f0f3C7x7Q/c0/OCjMMD/70X27/+s7J0+l4P29vc4eCfp9B/sdZodf/L0DmuCYBMGrLX99tCAMtTNMJ8b87/zRIRMheON/YTnwzfEZEbxh0ojgDdNOBG9YSSJ4w6wRwRsmkgjeMO1E8IaVJII3zBoRvGEiieAN004Eb1hJInjDrLGqBO/fwO//lLFz28Nk8mC8skPnw2Qxq4K3+fhY2kL52Y/tO7qeP5IbPh9WhtUieOM308lqEbzb1vwF+KGy1v+hayyWNqBb9GPoXJgMVpXg9esNP/ex/RocdCjPEP467+/+8aHdv/v68W2CL9Sxw9Izq4KXX/PzoXO7gmD+O3uc3X3moLXN9+daVMLysxoErzTx1nk/oTZ+PqxejOmkC15r98/9zgdr/s6u+3/94we2eq33f+sTB3f/7mvHdX9vpAPUWXkWSxuo519+6eju//u5Ne3nr4byhJVnVQhejvu3//CQ7oBz1nXn3HB/d/H6h7u9z7ihObFz/bxDmCifOvCC7qFR/f/pT09qn4fyhclh1gSvQMvvv3v8Vd1B564bBeGROP34wnYLLCC/MFogLr/tke6pza90//gz5tbiiemwMCzGkyx4+eO//epx3UlX3DXy2XO6n0/cnComXfDyv3/xxaO7oy++vTv3xge6s667r/vUARd8IGJ7+YZwnmb4B586rK33v/GD00br/5buE/ud1/3MR/fZlu/nPrbvT7XBll3WBr84itPi9ZV3PNodf9mdg30Jk8GqELwcyJ3ZU1te7V7f+k73wMbN3WlX39P98ic+6IDfNP2ZkUD6mZGIIIB9fctx3XU578eGOfrNDzzV/Ydvndj9xd/Ys+V1Tt5yTmX+6v/Yu6X5TcB+G8LyMnuC98DuZ0f+d93djzdx+g8+dXj3v/7mXh/48eg8X/353/nAp8t3we/NFz7Ld30mnluZUdpf/I09ustGgvfZF19rgrflG5VDiV/1sbf6pJlX/baFpUFcm2TB61GY3/rRGS3P3qff0P2Fj+zZ/EY+O23teBRvfS7/K8HgfPlo+ZVrOFbOP7roXyssP8ZjkgWveGgNePudd7uXXt/avfbm293jz73U/ZuvHDvyob2bH3kXF1t+GmAEX7TGf33NZd1JV97V/S+/vlv3f333lG79g091f7DPue28mMdf/+LIp39/lLb+p9rgL41irtjc/HaUj39XzP0zbXBg+7aj9MJf/q292ubbOTc80B150a2tzM9+9INz6vmln/atXXfUPu1Wn3r7/Q1Lj/FYNYJ300uvd6eMhK5g+nf/6NC2MP/JQWu7vUbB+IuHX9x95chL21cK/l3nH40E7q/8yeFtx+y3dz9zNHFO6Q469+bu//j68d3nDrmo+9Lhl3Q/PuXa7mtHXdbqFoB/dyRE9jv7pu47x13Z/ZPPHtGu229HWD5mVfBedeej3YanX+j++ReO6r51zBXdH+x7bluUvnvCVc0/7SR8eeTn+5x5Y/ejk6/tvnzEpaNgfnL3/ROv7g44e1332YMv3CZY/RvFH4/y3L7hmbZQ/P1PHtb9nyP/3/P067s9T7u++z+/cXzL97XRwvDHB1zQfX90jV//3ik79bVh2HXEl0kXvL/5w9O7997vuh+ddM0odp7Q7XbKdS1Gf+T7p42Orx3F2yNb/PzmyFcPGMXOj+99dhMg/2U0d/nZ7qde13zwv33/1O5fffmYVt63c/915Gf5tmFlMeaTLnj5EcF7yPnrRzHrupb/43uf0/3nb588ioE3dPuccWP3mz86vZUX7z5z8NqRL47W//3P766/94nuhVffHK3nV3UfHWmAA89d1+ojSL942MXtG2Ox9GN7nNWOCWm7vXTED0b+/u1jr2w7xPBvacXXbx97xUgbHNkELV2x31k3tXkgrn7vhKvbv0imX37rx2d0+551Y/eDE69pmuQfjrSIeP65URtLr3iUQlv6fQ5Ly6oSvM+9+Fp3xrX3jibpoW0HiyB64ZU3urd/8m73yhtvdU88/9LIoU/qnn3h1e7iWza0APv61re74y69Y+SIl40C9/tNQNz+8DPdG2+90+4Yf/KT97pP7Hte92++emy3cdPL3Tujut4ZpR12wfp23dyFrQyzKnh9LXb/k5u7f/+NE7qXX9/anX/jA+3G7bWRH594xV3dH48C+cuvv9U9NhKwXlfd+dgoQF/SPpsfL722tYmJ/z4SJL4N2fr2T7q3Rtz3xKbuX4/mg/rfeXfUjpGfe9ThX3/lmO7Bp7Z0L44WhvdG7bNY2DXpty0sDeLLahC8744Ur00AC7rX//G149sNl5d//00YvDbytS2jWPzosy92H/nBqd0lo/jr8+aX32jx9Nuj8meOYvdPfup7t41isJu6iN6Vw5ivFsH7g9ENPRHrZUfWzdTTW15t8Y4v/aORbvANrthozbdxsOnl10cx7f3urkef6/YfiU++94XDLuo+Obq5FxfffOsn3a2jsgedd3Nb9wnfa+56vHtrdPzyqN73R3rhq2su7X515Kd3P/Z899TmV1sstYn2q58/qnv0mRebL784ytsei9i4pbtqFF//7deOG8XwTe2cWOuRDI9LaOsLr73ZvfXOT1obXc+Ob7/PYWlZNYLX3ZBgyonctXH4751wVSsnEF9375PNwQXgZ3qCl1A4diR43aF5fWIkeO9+nPO+MnL+i7vXR8L35Kvu6nYf3aV5uUO7bjQBBWoBOV+9rQwRvCe0r/FK8L46ujnz9ZznKd3Q+WbjrdFC4MbMtxZHXXJbu7Hz+sFJV7fdBcHe7u1djz3XBO8f7ndeEy+Hr72lO+z89e0GUKC+/4nNbQE45Lz1bafiF34vPr8crHrB+37XFu3bNzzbYvNha9e3vKdcdU+LxfzJTZp4zV/dgJ1y1d3dHj/dqfvsIReOFqDcXK0Uq0XwvjESphfe/FB3xSg2vjsSkP9xJB6JX3HMDT8h+1s/Pr276b6N7fxRF9/W/dfvntKtu/+p7sFRLP2nnzuy++JI6Hp946jLu4vWP9xu8P9wpAXsFtsp9vqdkS9fP9IRhKndYhpA/b/yJ4d1B49E8cHn3ty9+sZbI23xcNvV9fLNmg0z7aQpPD72jaM/0Br0ydp1D45u/FzrvOb/BPa3jrm8nd9vFKN/5rf32e7zyGHxWFU7vBs3vdLdO1q4Od/v7nl2e0B86+huybOJnMcjD//l2x843tqbH+7+xZeO7l4eOegxl9zeFn4vO7wW/+tHk8yzOA899UITuOfdxDHfaNc7bDSR3N39h2+esO2ZtLC8RPCe0ISCP9L8+586rO1cnHD5ne3rYOmEBHHhRk5g3TJKu3ckXN8dXcOOBX9+9oXX2ldmp40m+IMbt7RHeLw8tqANXn967BXt3K0PPd0Cb/7CePlYbYLXzpbXv/3KcW3Dwa6YG6Ynnn+5e/2tt7vHR+82JMTlex5/vvnyrQ8/3WL2l4+4pJUlMmxKePm61/OP/WuG5WNVCN6Rr7wyin1u3vnhyVfe3f2jTx8+EsAPd8+9+Hr3yOhGy42/R2k8o/vIMy92v/Kpw7u/9Bt7dtfc9Vh3+8PPdv/PX/9x98kDPtgd5sN2a+0Ge3TrL35kj+6HJ39wI+fm7ab7N3Z3P/pc++bhllFMtHtMrG7c/HL72yE7s/z6zGvvawLWN8OebSeKn9nyavvWbM1Ft3Vvvv1O23X22NnbP7GzfHHbtDjm0tubXnF+zUW3tnUu3yIvH6vrGd7RHdeRF97a/d9/7Xvd/+u/7d6cX4B1B7f/2Td1z/9U8PqqY+26h9pXuFvfeufPCV4BeP2DT7fngB999qV2F3f6Nfe2r5AFANcY6d3u1yJ4V4xZF7y/Zof3ta3tEZ5//sWj2tdgx192R/fff3Dq6MbujZbHH27+268d2/7C2GM6vuozH9wQnj0SyuaLP67g2w+MRO13j7+yzYH/8eMzRgvEue3Yc2UE7w33jhad0byL4F0+Vpvg7e/wHnjOuraz5hGbpze/OrpheqY9t+iPgv79N47vTr3qnrZDRoR8+qC13UdHYsLr0wevbc+ce3lm3B8U968Zlo9VIXhHa4Bvn+zKEqS/Mrr5/60fnd7KHXb+Ld2+Z37wTZZfEbGm3/v4pvYHZPzKRtadjzzXtIIbMy8xkOAlhH1763lzz5l7qf/G+za2v6H4e588tLttw7PNr8++/v72+KMdYLHy2lG94rJ2+akzf9z2q59fM5oHr3SX3rqhO+T8Dx6R8NjDbqO6HXuU4tU33m7aguB9YySWHUfwLi+rSvAStO66/MGZ4Oq5Hi9CgGN7lIFIdSf25KaX29e/Xr7i8FWGl19rcNfGgU8aCWZf6x583rptX3moy66vZyLzM04rxywKXs9zXXH7I02c+gMK32g8PAq+HmXw8iyYGzY7HnbR7Fb8t++d0gL0AyMBfOgF61s+jzPYgfM6euT76iGK/eEGv7/89kfbM5YC9u/vc07bobt5JEzsBuePKJaP1SB4/ZwTweuPdYhVrzOuu7fdcHmmgfiwYbDpxdfbLpY/yPmNH57Wvn6+9/HnmyDxB8RE8ouvvdl20AgI36B5vMxfrvevGZaP1SB43Ry9P8rjJv4vfGSP9gsH/3O3D345hOgkML08muDRGnHu74769FdGgtfjBXZkxckfn3JNy+cbMf7nuWB/xEacHjESnl6/s+fZ3dV3Pd42DU644s7uzVF8dA0bBmKlb9f87c+1dz/e/ojTy+M7R6y9deTj57c4euUdj7XHd7TZhoQ2PTlKF/MJX5tv/ujtndH1xeYI3uVlVT3D687szZHDwTM9Hg73QLpFXDC1sP/qF9a0v+bkoB5tgMlCJHN+E8PXt+6wXhndcW0cnXcX6S8xrx4Fbk7+4qtb21e9vvLI8zUrw6wJXkLTZLzu7ie6Dc+80H6N4ZCR3/LjJ0d+zbcPu+CWFrDdpNn9NQ/8NuXho3SB2B+f+TUGouPffvXY7pFRPXYVfM3n2TE3cIeev775uK/UCGh/Ze8Gz85yBO/yMsmC1zcD/nixfpbM5oLY7HEwfsfXnnnhte4//umJ3W/vdmb39JZX2vONvl2z4N84ErZ813Po/qjHDhyRIAYr71EdMfcX428rxqQLXt+u/qdvn9T8x68nuTmiDfzigZ1YvnTno8+2R2l+Z8+zRkL0ifYIjdjpJ8F8I8EHrfEe8/KH7X7Fhk/7Owhx8IZ7n2zP8NpE4Mdu3pTxx2WbX3ljJK7PbM/oOs/f+b1neP19kGeG/eHb86ObPY890CKX3vpI24X2SJkYa0545MzfWYjZfm3iH48E7+aX3mi65OcieJeVVSF4OcQvf+Lg7r+O7vY4oK8e/NUjMepZR8Lo3Bvvb882em73740c3te2v/69U9s5z9n8s8+v6f77909t5zeMBMAdozsvXw97nszPOJlwnPiju5/V8tlRzuK/csyS4PWbz/z+y6ObMj5sF8x/W5PGj/3qAn/3B2V2Yu1q2AG+4vZHmxCW/pEfntZu3Pxcz7/+8rHt0YT/NBIjvgnxRx5s6VqeK1Mn7DT8jT84sP1k1H/81omjeTaaaz9tU1h6Jlnw+mbLhkJ9S/a1NZe2xcLfNYjB//FbJ7VfAvkHnzys+YxfxxGXfcPmp/L8oc6fHHhB28X1h0R7nHZ9i6e/+aPTWnl/+Z7fOl9ZJl3w+sy//OzYvxrFNP7TYtQo/d997fi2VvM3f6DmZp44FgNpBb4l1inrGwePNzr2E2HqFg+VF/dogo+MYqB4WLvEYqJ6PR5hs803HR8Z8WvfOqGV0Tb/lEUdzv3DTx/e8junL/7gnYB2bY9H2HV2/X89itv+IUZr0+g4GmN5WRWCt7DjSgjgF0ZOJU1g/n9/ZPcWmLeO7qj+zcgJ/UaePPKjTaaRY3nW5h96uPzF19pjDf5C2L8trH8nKJ9nejzbMz75wvIyS4LXV3duvPzlsJefcNL/X/q9A7f5sc9/c+Snfnpv3QNPtWfSHty4uT239tc/flB7HMJckLeERM0X6fVoDiFcc6ifb645F5YO8WZSBa8/JvP8oZf/UOkbA3GRH5VP+Ux8iJ/la/+fUSz2U05ePzzpmvY7pb7K9fujFpvyPdfr2yIsP8ZgkgUv+Fc/VhXWf2t1xTxl+3EO1nxl+al//uC4RPMH/qq8v1s4oP1agrnoGV2Iz3aYP/DvP4vDH1zjg7ZUG+r6H5z/4Jz+1LXrmj6X30vPHFh+VpXgnQtC1vOLvsL9l186pjneUD4O5usQd3F2yThvhO1kMls7vAe2HQp/ye6fovgZsvE/HhN0+evup1zXfn3BV8cE7x/sc07+sHKVIh5N8g6vm7BvHH15241qC3+v7XMh9tq58pWz/+737IuvtgXGPz0ZFy1hZTHmky54lwuCmC08FnH9PU+ueHvC0jAVgtcd1D//wtHdr33zxOa0gvNQPum+ovAfpuxYzJUvrDyzJHjBF+0A1C5E/1whAP/9Tx7aHm/w02L+Qlh6/Hh1MsmC1zO8BCp/7O+a7Qj891986Zj2KI457GYuYnfyiOD9M8RQj0KIqfA5j3dNH1MheGHC2F2oxxPmo30tMco/dC5MBrMmeCHAbi/IEhO+DgM/3hF/D5PJJAveYlf9S3wtP43YnUwieP88TRvs5A1eWD1MjeAN08UsCt4wW6wGwRumlwjeMGtE8IaJJII3TDsRvGElieANs0YEb5hIInjDtBPBG1aSCN4wa0TwhokkgjdMOxG8YSWJ4A2zxkQJXr/36Iemf+a392t/9BBmF/8a0o94T6Pg/djuZ3b/62/uPdjvMDv4vXCL/M33r6zgXXf/k60tP//TP+YNs4Ex90eyd25YWcF7/d2Px//CsvCXfmOv7rSr725+N+SPO8qiCN4NT29p/xHFbzb6KZswu/ydPzy4+x8/Pn0qBe8nDzi//TzeUL/D7OBf6/7Tzx7R3frQUy3+DfnMUuPl+triv0UNtTNMJ8b8n31uTXfPo882Pxjyj6XG66b7noz/hWXBzy2ec/19ze+G/HFHWbDgJQZefPWN7pL1D3QXrbuvu3jd/WGGWXvjvd21d27o3tz6Vvfee+8O+sxq49133+3efvud7sZ7H2v9G+p3mB3EuYtG78+98Er3/grd1Lnuppde7S686YO2DLUzTCdtnb35gW7zaPytv0P+sdTwv2e3vBz/C8vCBaN197Fntiw43i5Y8OKdd97p3nj9tRGvh5ln5AdvvN58YshXVjNb33yze/21+Hn4gLfffrvdDA35ylLjuu+Mrp+4O7vwvyHfWC5cf6hdISw21t23335rwfF20QTva6+9GkLj9dEiPI2C98033+heffWVwT6H2WOlBa/rD7UrzAaTIHiH2hXCYmPdfeutCRK8r76qUSFw0OkUvG+88Ub3yiuvDPY5zB6TIHiH2hVmg0kQvEPtCmGxse5G8IaJJII3zAIRvGElieANs0IEb5hYInjDLBDBG1aSCN4wK0TwhoklgjfMAhG8YSWJ4A2zwkwJXgIKQ+d2lPHyPpuwr7/++ofSC+nOM/JCr72aWCxbz5rgXQy7jcP33nzzzcFz22OoPdo/3yLlWsZt69atg+enhcUaK7acZMG72P44H+PX8jnxdRj9XYw+s9+QbywX2/O/xWI+Wy2GHRdjPIbqEE/5dz+tjzgr3u5qjF9NLNS+MyN4Gerll18ePLcz9OtQ54svvtjdeeed3TPPPPPngjJhsHnz5u7mm2/u7rjjjmbsuQL3NMEu+jqXqCu257zOz5rg3RG77Sz33ntv9+ijj+6S7423Rx0bN27s7rrrrjYXxsdQ0H388ce7G264oduwYUPra//8NFG2mc+Pt+fjsOBPsuBdjLi5o/R9yvv24uvzzz/frVu3rvljlennmWbG5+YQO+p/Q76xXCyV4NX3vi/N58eL4eM7Mh7zoY3jdfB58fSee+4ZrNv5hx56qMXbJ598cqrjLbY3TtvzdzacesHLKQjPk08+uQXGXbkTUuaBBx7oTjzxxO65555rdUp76qmnuj/90z9torY/cZ1/6aWXujPPPLM78sgjG1deeWVzyO0Nymqm+nbdddd1t99++7wTcHvBQV1zCd6VEgiLAZuM911f+czatWu7yy+/fFHu1tXnfa+99mp+uLPzSxuuueaa7txzz23tq/Hgx9///veb2OiPr/yE9Zo1a7qjjjqqvQvU07jTq9+E2LXXXts+l9+Psz0fx6QKXn20iB5//PHdY489Nu9cXih8hD1POumkbsuWLX8uvhK1ff91Xr7TTjut+Zr4aiwWY96sBvR//fr1zS41z4fYUf8b8o3lYqkEL/Sf3z799NPNj92E933EOTdTJ5xwQvfggw/ukv9UbDzvvPO6q6++epfr8H722Wd3119//baYyecvuOCCbvfdd296oj/WNWcOP/zw7uijj+6OPfbY7oknnpjKOWCcjJ218YUXXpjT5433fD7v3KoRvDppcsBxObNyBr++1jLg9RWAdHUTvIccckgTpj47D3Upo67x+vvXVo/F+8ADD2yTx+f333+/id+vfOUr3Y033tjKVX51c9xTTjmlOSHBceihhzZBMI0OWdTEvfTSS7ubbrqp2Ul/4dh4OXbXWhN7LudVl7Ht+wikse94+mqBDcYnpb5KP/XUU1vQK99kG+fGj9nAO1uW30or35LPtaT/+Mc/bvXW+bKfPHAsXV6fq03G5uKLL+6OO+64bZ+9rrrqqu6b3/zmnxO8jk8//fR2/v7772+C1w2ivvbrnQb09ZZbbmn28bl8u96NicDshsEuZY3LEOw+FICN03jaYjOf4NVm83T//fdvu0jy8xXn9LOO+/7nuMr6LL18jV0qbdwf5BGbxehNmza18uIrHxNf7WAp289PXIirYuoZZ5zR4iuBPp+tpwV2JvDNtb7f1Tv7Ekj8z9q3Pf8b9wssh/9hLv+Dfhpr/dIefeuv+/00ecov1eubrYsuuqjFLN9K8WNxqfJV/6znBxxwQNsMe++999q58ttqR+Uv3y29UG1gX7HOhoW8ff8vX+/3w3vVjcpDtF5yySXb8nqdf/753fe+970PCV7v4ovYbGPp1ltvbXNH3vG6pwH2NHY2X/gz+5S/O1d2oSncJPfHro9xc27iBa/OCYR2DnXK3b3O6pzAx7lvu+22lu5OjQMwgnSPE3AOIsxdggDpzoijEKq1IAmuVT+jumb/+spxRteAsvJb/Im7/sRlVLsPRLK8e+65Z9u9EKTmm+DTAptbJNnReLCdNMGFLQVqk5V92H98AYQ0PtH3EY5q3AUwdlyo464E+m/iDfWX7xFSfMYi/+yzzza/d+zmSjnCgP2kPfzww81vlZNmJ44vy6ceO0AEL0FAQBAwdmjND9dzHfPgkUceaXn7d8/aaU5ZNB3Lw+eJDAG4L3i9a6uArbz27Lfffu2GTxu1qd/X1Y4+8m9xhA35ONvzcTbW37vvvrvtPooNbFV2HWcuPzYv+PpS+ri654pH2mv3i2gwb/W3H1frGxw+wxf5CV/VZvOdP4qP/FVf1CXNZ19N9u2hHjYUoy3s4/HVca0P/FZZ39jxSSJ3n332abt04zvB0wobGAOwbd//bLAYg/vuu6/ddFbsmM//hvxiOfwP8/mfecPn9MU6b6y1yTt/Aw1Q/WUHc1LMEXu++93vtp1weazdbGNtZje7hUQu29Q5oso5flQxsmx9xRVXtLr4p/mtnPVcG8wPMU8Z9bte+bpYrIxYqn3yq298POTTR2OoDt8oix10gxjeF7zVX30k0s8666zusMMOaxsb1ty5xnq1Ij4YH2uaeEPH8Xf6gZ3012c73dY34zFkAzaeeMFbTmfR/vrXv9597Wtfa9v8nM7XFH/yJ3/S/ehHP2pffRFChOZuu+3WzluALbyC7be+9a02+Tm3eizan/3sZ1tQNenU/7nPfa77/Oc/3xb1uq42OK+scoxpZ+fTn/509+1vf7v7whe+0By7Jq4y1TaBX3A3ETi6xWOuCT4NcDL9NQaCASc0BhYnE/LCCy9swcDd8MEHH9wmqMBRwqkPOw4JXrYVOBbDcVcCfTXxxvvKdnYh6ivkL37xi000mdyOTWwL/3e+850WAPkp35VHYDcv3OWrj78pQyzwT3f+0u1kfOYzn+m++tWvblsIfvCDH7QbMo8pmCfsKy/7Gqd99923CRBtMz/MI2WImxo3AZj4IDr4t/ZbTM4555y2ADkv37TARgKrOCHmsBMfP+KII5rv82m+7hshQZi/ll3HYa8hPzYWfMKCNn5usXDdueKR8beo8hW+p1/8Tro5vffee7c+2dWquGzh5SvmtrzKeqSGjdiB733pS19q4oFPVHw1zwkQvmXBFl/l7cfXvuAVY8wTsdgCSHxfdtllrY5pF7z6b96Z09ZBfmLeET++3raOlQ35n5su4zif/w35RfnfUsfY+fzPTdY3vvGN5kv8gYDnN+Ke9Z5/8UVp5p+4JBZaV8SzT37yky1uiUHqESutyWLopz71qVaf+OocHzKP1csPfbNAmLIb35WHnxO2rkeIapN8yoqt0tjMIza0xZe//OUmYo0HjQJxWdsIuBoTZQhaukVMcbPhmO+77h577PEhwcvHxW87nsbH+BJ/+m2uDa2nqxn2tqYZa7GV7xsr48K/rT3Ghb+LwYSxMuP1rArByync0QmoJrPJzWEsIhyQgzAAAWCwTfwf/vCH2xxVYDZ5OSYRRnRyRndPFvODDjqolVMXB1KXvBbtMppJaZIJ1iYIZ2RYIpYI6AteBjWxjjnmmG13yV4WBnd9c03wacCEtBiZ+LXjaPFjJzcMAgFbGwMByqSXvxa+PtI4pgW/sEtZgZC/+Nw/vxrgl3MJXuKAz7IbvyrBy7cFXwsav+JvgqGdDL5tcRMMBFOT3+654C8o8msLo6DsPNHs61++bzdSUBaIa/eixqIvbIhX1yPypFkUxgUv/3Yd/g3n5NWeaQvAxpDAssC4aeDX+m53xhjxTzs6FlSLkTgw5OOYy4/tmLuO1/i5xcJ154q7xp/P8UM7X/rKp6RXXLX4EKVisthMSJjnFmkLMLEhr2O+Z/HnmzYbCOPyC22wESHGi/UETsVXsboveF3f4mfBqwVMX4jt/k7wtMKP2M3NpPWKn9hMEAP4HP8z54g8NmR7NwXz+d+QX5T/bS/GDq3lO8Nc66FxtcbbWOJb4gsfErPghlK/xTexyHpC4LILH7KuE4rWG/4rhopj9IL4xYfUL76KbUSSeMV3nePX1jH2seNrfkvjz9YtcdO1xGgxwHO2fNKc0U6+qz6xVXtsPhDFfNScoifKV0vw0jX6Ko7UhoZYrY4SvCV69bf8nR2Nl7Wh/y3dtGB9sT6Jp3b9zXVxxLjqMztZC0vsusEY8vdVIXg1kKO6m+JUnMIdGPHqDk9HOSCH8i4wC5iMxOEs7ESBYMowJg7HVa8HzYlXRiJmlSc2OFt9taANJqU7CHUIJK7ls3Pq4ni1yHM8A2MiCBicXf0Gw/G0Lf59TDQC1mS0uLGloOSdbdnAWAgGAg/7DDmmNPUIZBy88Fl5jm6xHT+/IyjnXdldKb9Q9Guov2znq1kTmL0EYT5k8RJA9ZmwsIvLh80B9bmx4MP8nA+bK44FX4uVbzgsjBYIux98unbTiDE3d8SGOdhvk3yCiroIXQuLoCv4EzauzZfNM2LanTZ7ymNB0kZ+oG9DY7ya4bdsaNfTgmq+ixeErWNjZTG1OLKJ/EP1sIsFii3LHws7UXxd8B4/t1i4rvqH2mb8Ld78UH/01cIrzomrxKzYyzdtMNSOrrnNz/gMv6w/5uE/FhzitWJt2UXs9zgDn7SbTHSIr/ITJ7WwVzzla+xrzvhs88JNh9g7zfEVfEYfzWm25SNErnnvJoJt3HCJG3xRvJvL/7A9/xtPL5Th78ZlIQJie4LXWky0m2f8xvorXvEtGwR8zk6/2OiGTPwhxNlBrPRiD2XdENiAYRdt1vb6Bo3IFXv5tbhprbJ26WdtEFj3+Zl61CdOu5YxoU1oD37Pf/VBrNQ+84cf2+iRrp7+txH8WLvNI2LOzbT8xs23ISV4jXul2dhzXWOhHa4txovHZcNpQZ9oKGNqPNjIDQgfcYPA5nzVebaQPlTPqhG8nNydvglO6VtcOCin47DusErwcgTBV30ce0jwCqzqLcFbdQmeFmt3YBbxmox9wSuwlODlgH3Bq07B3Z2f6wv+2kB8qG/ag/GQ4C2hD8FCcCLSCF6OrMx4PSayemo8CuMrEFuI63P//I7AXwSgqoPvCKbLhcClf+P97QtefRTotVN7+SMhwE8FQrtrAqa6iE/+5Rzx2he8XgK4xVGwlZdfCpjmABvUvDAH+23iyyV4jZd8xsT8K8Er+Gq3Oce/lTOu+uAP2IzffIvtakWf+oJXoHVzQgAQucYNjgnKuRYh406kEGqESR+ChW+y8/i5xcJ1LZhDbTP+fcFrQbXwWizEtL7gNdb8j5gVawkF4oMQ89mCxH/0l/8oY+6Vb/BJgldcLcFrp1h+8dWxPCAGfAvHX5Vhe2KH30+jr43DJuOCV1w1VsQrnyPwjI1x4j/ziSD+OeR/ta6Op/cxhvx3ITu92xO8Yp+xNc/qhopP8AGbXmKeNcUjLgSweMRP2KQEL1tY3/mor73Zxcv1y4edE7fEOy++y7esY3Zz2Zdfg/gqH/YipErwipVu7rTDfNBmGwvaLGbIW8faqa/yjgve0ijmjnTn+Td71y6zMeD74jRfMJbTqDHGBa81xnrGPuzFRnzVuNIcc/nUqhC8BpmzC4IWGI7njs+AcyZOZrA5tHyO6/EFZQRmQaHS3B36moTD+cqDAzsv2KrfHYO8nLkCBQMSBRzfBCGSTSYB186zO7kSvAbC4k+0EDDEusEQqDDev2nCxCWK+o80CBwleIlfwYktBReBYK6v26Sxfx/2lS4Qmtg+j+fZHvxJO42JMfK5xm45cO2hvkovwctGJSTqqzp+J9gTHYK9mz6Tn98St27k+CJxIvjbZWNn80J+gkydxsVXa3Z+jY/z6h2ff9pqJ4+45sMEON+2kLgmocR2xtscFIh9rWq81att03qDp9/1SIOYI9CyEcErKPNr48UWBJ6FaWjcwc5sPw4f4BcVG5cK15+rXSV4iVA+JP7xKYsx/7HA8jMLrj6XT5Yfi7H6zif5ntjLf3xLZ96Xf2jH+CMNFV/FavFVHraws8PW2sQ3rQVsxb5DcWTa0Ed2q0carF3iagle/ic+im3WNrYzBnPZZsj/2Hl7/iedgOD/S7XDS7jb6BKHrMvWc7ur1n19Fx/FJW3lg0RntdlnwlLcAz/mN9Z4gtRNFBFVvulY3LT2E7liHC1BTImRxKubuPq1JfWpy7cL7E1LWPccmyfl63y59At/ZjPzR/xgR33luwSteUHMmUf6bWNCrK6da+uX8RZ3lBH3bTaYM+LvtMZb/e4/0sAX7GbzEfZip5oH1rLy3fF6VoXgrQluseWMnJMzG3AD7w7QHZBJQARbaDg0OFvtMnA4u7IcUR0mg3eGdG31c2ITyGTqCyFfcdjFdQ1CiYGJC8JXPeqQFyYIw3uGSFBSXl1zBZxpwpiUAOJ4hA8nLcErGLOf3QM2Esh8HpqoFbg4Z2EngfMLKmztc//8zqBu1zaBjO9QnqVAX0288b6yHaHAXvrIVhZ7f1DGxwR/AdMfW5gH/FkAF/QFRzd2AqMAbvETdIkRQVTg5oN2BvitYO6mTGDg00SMOSAPf62gYPeAqCDkfBVormmP4M5u5de1y+CcYM22+tPv4zSh32IA21vMiLva4eXT7G8BsiBZIJ0zpkN18WO2rjhYiFlsOHRusVC36w+1iw+U4CVmzdmKq4QFQapPtfsvllrgtZvPiaPKSmMXMYGf8l2xwXXL17yIYz5NRLOtvOKrbxNK8GqvmypCzk6cmK0f07rQD1HroTntJoS96yaL4OV/bgbYnBgyb81JPjtUn3EY8ovt+Z90YyeGGpuhPDvCfP4n5vEXcYw/uPl3ztohFlljbQBog7kmVrGPOglRZZy3PvNbO8XEKp+yiSAe8mv+S0iLY64nL1/0LYuNL/FSDFa/+Mz+2iKWKisOuwFU3pwgfMvXaQ6xQB21w6s/fNxLP0v7aKuYYg11LXNKrOXrxlPdNhr4f+1oW1f1d5rjrX7XDrx1x66uOMB2fsaTLdmV3rKDT6sN+fuqELwwmCazRVpnOCmnMyk5aj0jRuwyjgVGOoetyW/ScxZilvOqi6O6c1IXp2RUuBbDCvggsIg3dcjvvDtCdQs0FRzUQ3QLRIS160kb6tM0Ithwqvo6lp3Yjv0hgEkzoR3X2Cg3VNd4IO0HWZN8IY6rrElRO/kLnQQ7Cn8YErz6KrC5QXNMSFno+TQ78T+i1p0tn6uvv/itfOaEfHZz1Mm3zQN2FuT1kcC1ENgVc022N0/YU7vkcw6u59qOnWMnuxyu4/rmgTr4vXkh2Jib8g6N5zShf8aHvcqvxQvjymaO2YUN2ao+D9U1lx+bI0vtl+qeS3A4r1+EK6Fg3vGFflxlB+3ka8aej7jh58fy8lXCgd/xU/4jLzvxOXnEVz6lLD9SXz++uoFTnl+Zr/ISe27+5JvLrtMMu/MtNuN/Yqy1puKqY3axFrHvfDu8xn/IL8zv+cSB9IrF43F6Z5jL/9StX3ZXjXXdoJsT+i3mmX/8gx+Yd/qqrL5L46v8zSMbytcz3vzKDi9fks85N1puzghN/l51gZ/K43rapA518Wd6QVnzXBv4KHs7V/4Mx2KG+tRvbMwj14E+uY40ffROqHvXR3NGv7xru3irTnmrndOKfrM33+aXxoH9pJsHRL9jvsiW/GTI39luPp/eUZZc8EIHOJMB5nDSdNIuH2czMTijDskH+Sqvz65jO9zdVnW+DFP11zU4mTtkOxOEBVFbbZS32iF/37iO1Y1++izBLsZG/x17HzrGUHnIM1cgNW5D6TsL3zGRBL2FPIe2M+gz3+j307vgZkfAToVFgP3Kx0oAu6kT/Pm7XTR3ueoc90WUL0tXl2tUneP5ahzcONq5gLtm6fI7V8d1HWl9BHXv1Z9phy3HfVz6+HH/8xBzCd6FiIgdxXWHBIc2i3fiH8E7X1zVN2l8Q312qOxUWfwtyr51IACcL9/zTtDyM9ewQUC4uUbV2fe18t86N2u+NkT5n+O+j/WPne9/HmJI8GJ7/rccgpcwtVNKuPoWrt/fvn/oXx1XeWk+1/l6d85xlZfmWDvshvuWTX+kVV1Vj/yQpi3yVL3znas6qv36Zg1wQ8j/7QgT8NpQdXivNlZaH3NA3VX/tFM2dsyOZcvxY3nq8zil+VaF4J0LHSAA7NoKsn1HHYdD2R0QkAXYuQwDDmVXAgRRX6Rsj1lyxKWC/eYKpAt12ILINa4W5MWqc3uYkH1f4oN8TaD1GIIdiXEfLl9y88XP/axTPaozFAx3FXOifN7xUJ4hyt/j8zuPmLRcvjeO6w4JDml2rogNX59uL1YWFnUixaMIfJTY9cjDUFk7NYmvK4+xHvKN7cF3llrw2tFzk293da58iwFfEnM9GkL09oXqUsLvaw6YD0N5hij/zxzYOaZC8Bp0XynUVxvzOYFzdsrsWOj89vIK1MVQnrB0sP9CAumOwPEJRl+BDJ1fCsYFr376XF/f1p173xbgg76q9HUYUVyP0YznWwh9f1/susMwFvJJE7z8z00gPxMvd9QXym99DUuk8Om5/FlafG3lmVTByz+s5zazxL0hH1pM1O+rco85LPW1ir7/L9c1Z5mpELzgLDt6V8a55B06FyYHY7kcgtedvUV9qa9VjAvegk9uz4fLd7GYO7th5ZhEwQt+WF+pDp2fD/6p7Pb8Oaw8kyp4wXeW04f4euLq9DI1gjdMH4LccgheAVfQ3tXAv7PMJXjDbMLvJlHwhtlgV+PecgjeEBaTCN4wsSyH4IVrCNqLMRF2hAje0CeCN6wkEbxhVojgDRNLBG+YBSJ4w0oSwRtmhQjeMLFE8IZZIII3rCQRvGFWiOANE0sEb5gFInjDShLBG2aFCN4wsUTwhlkggjesJBG8YVaYOMFL5IQAP8E15CeLzXILXj+zY/IN9Xm148fTBZWhc2GYXRUci4XrD7VrFjAP+ezQuVlhEgTvULtCWGzM94kSvKXEQ+CgCwmkO8pyC95p3uHNzvXOY8FfDr8bwnVdf6hds8Ks++wkCN6hdoWw2EzcDu9QI8NsEsEbZoEI3rCSRPCGWSGCN0wsEbxhFojgDStJBG+YFSJ4w8QSwRtmgQjesJJE8IZZIYI3TCwRvGEWiOANK0kEb5gVInjDxBLBG2aBCN6wkkTwhllhJgWvn4UipobOzSIE2FD6ShPBu+u4xqSO60rAFpM65ydd8Pp5QHl2xJ/id8PwvcWwi3oW248nWfAult22Bx9HPy2+PJmMj9POMJOC98knn+y2bNkysQvgcsIBnnnmme7ll1/eaXv0g4GbiL4jOpbWz+O4n8/n+a7pXATvzsO+xvTZZ59dUHCYFvgRW+zKnGe/vr/2/Vld/Ll/Ay1v3+/75edikgWvtm/atKm744472hyZry/OsTPf216fZwm+8cILLzTbDJ3fUdTDh9W1s348H5MqePXRuvTcc88Nnl8sXIeP9+OD9/LlxbR1WDjGil8MndseMyV4Oa5AfOaZZ3b3339/W5iG8s0KbGGSX3HFFd3zzz+/w4sUO3KcDRs2tOCrHHs+8cQT7dhi//jjj3c33XRT98gjj7Q0yL9u3bpu48aNrY6HH3543uAtPYJ357GAXHnlld1VV101r5iZFdj7mmuuaf62M3Oez/JpvrF169bm0w8++OC2OLJ58+bu1ltv7e66664WgNUtLx+Xz3WV5+/yD10DxmgSBa9+6sMll1zSHXnkkd199903r/3Uw86XX355/K4HGz722GPd1Vdf3Ww6FO+G0oo6p54777yzu/fee9vxeL5dxVgN+cb2WCzBO9e6r4/mztq1a3dpQ2ZHMbevu+667pZbbmnH0vTr2muvbWuj4/EyYfkx/vzg+uuvbzdBQzF1ez6yagSvjgi2HNIErc5K14F+molS+RwrV8fynHjiiS14v//++9sCR+Ur55ZPmZoAk0q1v47Zw7t21zl9qf45D+f1leC88MIL2+I9bteyt+Oqv2wkEFnYOBCxy6YWf3UQ0RdffHEL8Jdeemm7I+OgriNNEHFdQeaBBx5odVYf+rjurAnesjE79u1SaVXWOFVajXWV0Z+LLrqou+yyyzqv8uEqo5+O2dcxaownEX2r9ml3oV9lI+fLds5Jc1x+zhYEr/GVr+quPFXGOZTN+Cuh+/TTT3dnnXVWE3/yKkfY8m+IJ9LdaEA+Zfg3P6/6hzBuy+F3Q7iu6w+1S5v52gknnNA9+uijLY1tys8qn2Np4ik78z0vdh/P0y83C7AhOxO8/KT8tHzXebHXDVL5nLTySfAj9jevxV2fla16vPfL1LXrfD9tCOMy7hc7At8xxrsqeMvn5/IJtrKWmEP8UF8qDijjGOMxzDl96vtbpQ1di33YtzZsXMfLPLZmKTdeJqwM/MBY0Q/Gsj8H4Nt749iPPePlnVtovF1SwcuRX3zxxbbwWFjsHNqR1EHn7bBYfASO6vRDDz3U8gkOjp03eRjp1FNPbTsR7ugEkCpjN/K2225rdxHqUl4g2l7AWCn8S0ztNohspK/aLe2ee+5p79rOVoKSvjivf4IIuxCitWATrsQpe8jns3xsr0wFXvXefvvtzaby3n333W2BJ3iNozJErWvfcMMN7bz21MLvnN1e+dxF1ziOo0+7Ekh3FteYFMHLtoTZjTfe2PxdXkhzZ+u8Ce7rNv568803t3E0NspYWPWB8DjvvPPaV9HGnd8ba8HA2Omv6/F3ecqHxtszCZij5i7f0Qd9926nix/J4zwbsJP88rIFv+PT5jv/ZIs6z6flV4/6pPkKk43Vy1bmhvrls2NuEZRPwCXsahycM17mgfyuZWzkk6YNylWf+lhQl8PvhnDdoQWdL9Tc3nvvvdtc1342Nqf7vulYGnu5QTj77LObT7G9esDu8rDrXHaYNvSTf4hz7FExkQ3ZRixlP7u255xzzjZfVsZ5Pum8uGmXk186JzbzJ34sRnuvMt5dA+a4tO19e2f8h3xje/AdMXNnBa9y7733XiurH9o3FHukmdf8y1pnntW/Lmcrx/Kxba3b4hw/tHabg2xfPip+ls3712GbsqHy4qkYef7557f5H8E7ORh7/mbsxWpjLX7XoyfiszEznvKP+5XyEy94OajJf/jhh3ennXZad9xxx7UAwBGJ1mOPPbbtMErjsGeccca2NF/FCSZHHXVUM4Zr2LGQTvjCROHcRxxxRHfBBRe0Seb9pJNO6o4//vg2SdQ71LaVwkASooSNAGrSCqjayiYWYAuyvgio5557bluMTGrnnRNIOU9NbDu2JUCJBSJBPgHFws2+dm45mHOCCbu4tjrXr1/fHMm7xV5QE3AJMQHIcZ1XpzElBth/roA3K4JXX6Xzx6OPPrr5Of8zsQVrPn/yySc32IsNDz744Obrhx12WHf66ae3c3xePXxh3333beJDfXyEH5hDp5xySquTiFEvHzd+hHS/TZOAvlio+I5x0mY3uBZ6Pmie8nmBjx/zYb4LuzPsYKHk++YA/+Zz5gXhoG5lnDcG5o062cN1aj7wcYus+vi8gGrOSLdoiy0WXXNKO+uaNS99niuGTKLghfay9/e///1mM/OVn/FLPsR+4gn/EVP5pP4TyGy9Zs2aJh7YQJzi28ccc0xbnNh06JrTgj6Lz3yrfIoN9Ztf8Y0SsWKluevmgo35S/mkuOvYY3huuoyHzQnzwQ2tPPzeNdhYWX6snorp5slcMRbLJXjlL3/TrxKZQ20C/zPnxEL9YSPimF35oGPz1FrPB9lGXJVfXOSH7OIa4qLy/NR1+/6nD8aC/4qT4qW4KX5G8E4O/Lc0j7EvfWIO8HNxWMyn98yVIX9fNYKX03Jgk12QEDh1kONbyAVfaRZyzs8AJskee+zRgoMF0uKuLg7NkdVtAgg0ArhJ4jxjVV71MCIjjbdrJTGYgqoJTYBawA0+Owgm2m4R1hdBQcDlLOzo2KT3WX5f1dqBYU8TnzPV3TMxIYhKs9ixI6dhPyJDUGIbwQIcibh1TcfyEw0WQsfGmTAQ5AVhi4C69WWojzsSSBeKa0yC4CU43Yi5qZDGB40fWxtb5QRztnUT4QZNPj7Md9nTHDA/+K1jZfivz3Y89t9//zYv+Ih5YgzduFgQtGEoSKwkbOLmiA/xNf5SOz36ZieGLxG4/NM48iW+75x85a92GPXPMX93bA6wBRvxf3YmgtVdPu262uG67OizOCPwupa5Z44YE1ggnZdXPfUth3JDfZR/OfxuCNeda0HXdgKAoGBH85aN5Rcz2Ne8JsbYkT31mV8qy4/BdmxrfhG9xnPS4uliY6z5WM1lYoyPlb84L40N+S67sSsxbCF3nk/xOWn8yniVLymnbr6tXj7Ljyt+O6+Mcag543i8nXDdcb/YUcRO8cYYe6TFJsdc1PruhqeErnT19NtTsIEbJrFJzOKH3vmaY7HL+k8UW6cIWmt9xTK+RhvwUSJI/92Imbd9/3MsXRwxDtZHeekE9pxrfoTlpeK1GM3H+T+t4Zxj/iBeW+f443h5rBrBW3degoVOW+RNBu9Em7ICr6AsGBPGytWOgoVQXh2uieHFoS2mJoSyXhz/wAMPbO/KyM+ADD7UvpVCQDChBU62cKcjTQDSP3f+gm59vWqQCahaiOUVJMuB1MlxBCMLHCEkwFaawCo/G0qrnRq22RHBqz7jzM7lqNqi7gjeD3Z4BWs3MBYC4sJix6/LX40xwWbMja+XcbFIKsNXLQD11Y4Xe1dAV5eFyQ0P8Suf8gcddFCbV0PjsJKwibbyE2OkT9pJQJnj0vloiVH5CX994p98E8SDucD+bMjG/N98IMDs6PBDi6G6+AER4Zzy8rKrazgeF7zVjr7gdV5e80I9jof6KP9y+N0QrjvXgs6WbOjGi7+yPTGrP74p4Dt80Fyv+tiB7b3MeefNL/GJfQ455JBWftpFhLFmF/OUjfkZfyib8j8xlC1K8LITm0kXK81Z4tbc51fq8e4zf6qYLr5KE7+MkXkiHqhT/LUeuh4/Hmqrsej7xM7g+uaNa5oH8yGP9pgb5q+1RLq1ZmhtZUN2E9MIXTfoJXjFSXWJW/pJ1B966KFtrZPfvCR42Y8d2dnLuxjYtwW78VNjVY/jeKnT2jjtvrpaKMFrfvADMV1MNm/Eovp223pnTIfqWFWC110dcWuSDAleE5vDc1qLIQMpoywR2Be8AoAXhxYcfD1EXBADxBjBy4iMa9JMmhBAiQHttDhrZ4mCEjkleFELD0dRFmypjwQv25jk7GXyC75gI0HaOQ5HUCgzl+DldIIxWwrEFjr1OSbK5JPH+FgEInj/TPDasaidcILXmNq9LX+1uBkH9rQTwcYleJXh2wSbMWZbLwG8BC8/10d3wwSvumAh1Sbt6LdrpdEeCyIf12d+zgd95kd8vQSvbzvYUH42ERQtmn3Ba6zZio2JCukVM/ihzwSIfHMJXteoecZvxR/lzDlljEONAZ/SztUqeMUCgtecL8HLzuY/4SLm6nfNU312zouvOrYQESjGTFxlj1kQvPppzrFL+YM46138E1e98zdp8rGZdBsZzsnPd6xJzo8L3iojzTVL8NbXvPKpZ64Yi4UKXvPDXOMr8yHmaKc1yOcSysTvULv0Z1zwymt+W8vNYY91sZd+sxF7yYf65sG7Oe7FFnMJXuXFATrAq3w5gncysBb0Ba94IiYbH8d9wdsf3z6rSvDarS3BKwhLK8dnDOLWBOHQJXiVkY/gNQmk2SkWtHWawPD1jx1eQUaasuoS5MvIQ+1aaQQwbSRsCBpOYMD1zYBb9NmmL3jZwuQWOPTNOwcqwStwCM7ySGNPu+DErXxlC8f1LJRrCe5wDQGthEEJcYJNYJbmHPHheuW8Ebx/tsPL/+SzQ+FYQDfGxC2BITDDGEkzPhY4Zfiz8ZOfvztvTME3+Ln+GnfzQJCwsEyqj7OL9hG7hD+RauEk3NmrbsxKUPAjEPF8Th51ONcXvOwqTR47TSV4+WYJXnWbN/xbGwRXdlV/BV5lXFvAFWOkaTdbGyP1EORiizrG+wcBezn8bgjXnWtBZ7uKu0QGgeUmTD/4r/N801iUjdivdnjZmd+xc/mdv6Vg12kXEWxB3PEXccUizBbiMR9xXjxkC/7GX9lEvoqTYrt3aXzcWA0JXnYuwaseYyYW8z9pxk5dQ+2E6477xc5Qvque+WAH88Y8EW+1iU9IH2qXtpfgFa/4jvnmRmu//fbbtqab1+rQT3NZfnalFWywsEk/VvLZ/jUd82H2dI4PyysWy6+N/XaFlUEc5z/GiGYQV0rwOraW1U3mXD61qgRvf4e3jjk2p/dso0VL/hIKDDS+w+u853UJZuJBmkliMbUoMZ6J47OJo06LosnXb9OkYKERIIl8CzGxaefPwBPBPpfgLScQPGtXj2h1XILXsTQOJJBayKXVDi9bsYXz6nbcF7yuwSmdFzg4p2BlrAR8CwAEO8HLefmN1XjfpPGJIV9ZTFxjUgQvwVqCl0/zPQGe6OCLfJ3/u5GYa4dXEDDGdj/k8VxwPd/EJ/TTuBkf80C9fIH/DI3DSsO/CAV954f8Sb8s6PzHe4lOfdA3+eVhF4HQDcH4Dm+JEIKUIOOP/LYEr50edlQfaoeXjXxW3pxgf2Nm/MxF/i1NzNF27TJXnB/qn5izHH43hOu6/lC7+nGXz7E7EUD0spc4oY+ECF8VY/TVmHixBfu44bUz7JhPyjfXNacFfshexK25yiZ8S5whoizK/NONkdhoXtp4YW924qN8Tx380Xn+u6M7vOYJH3TO9cV3bRpqq7EY94tdgS/tCOIPf9JO/Zsr7ugPwcvnnBenHFu3DzjggGY3favY6Nj6xB/Zli+yAz+tOMeXa36bm9B29qUlxBHljRFfZc9p99XVAh+ojYahHV5jx19qrsg/7lerQvBqNEe2+Nfdav/YxLeryblNEosZgyhXOzgmmEVJhy2AFrMymDJ2jpQ3+SrQCzowMecKFiuNdpnQ+uGYPfRTADSxBRTtrz5AGnEvD7uwB1uyDadxrE4BWL0WNTZ0Tv19gct26hy/hmOCQN2VRnRJUx+nY3Nj4Ny4Y0IanxjylcXENbR3JQVv9bd8V57ySTY2VsQW4aSdbFm+650oVkb5GnN+wH9rd9GYKl/2NqbEYt28SB9v0ySgrfrEHnzTZ3226PMvc9V5/l752Vd+/saG7GXRZyO2cmzBVId8ygqm3qXzcWWID3WxjWu4nmv4zH7iiLHRLnUTzeZN2VMeYqfGtN+vQsBeDr8bwnXnWtDLRyrW8iH9N2fdJLCHNH7GNy0ybCZOlP0qZhBqkMd4TaqvLSb6yAb8wULsWDrfMCfLd+WTxs7Oi4/K8Cs+yf/YWB3O8THlzGc+pV5pxkudYrp0vsz/la15029fsViCd0cpX9dG8xBD7arYZlOKjcQ0vqdP4hzb1PovhsmrrzYN3HR6J3JrreGjyrGDGMA3lREfyrauKSaIm+pi21nw1dWAcTPexq1itRhkfOrYeTfYxnXI382liRe8RX/BqGOdcoxyTO/V2fF8dX6+MuN5hgw3SWhf9aOOC5+L8fx13nudq+M6X/TPsYmAIYBUIB2/xnjZ8TQIKpxTkKk8fdQ3S4IXfX9jozouX0Sdw/hxlcd4GWmVrz7X+X76JFJtrc/VZ1R/x/vWP1/vVbZfphg/J3jyccHUtSv/XNcYT+PXFliLdJ0fYlIFbzFu9/KZ6lN9rn6j8kK+ytMvNwv0bYLxtLLFXOf79cg7Tv/c0HFR9Qyx3IK34HtiL58YalfNH7uzPvd9qMroa31Wl51dc9bLhoyy+q8ueby7IfAIg2/D7Bhbh6SXnao+bM92YfmpMfE+7vfop4+zqgRvmByIAXfAdoDmcq65kL92LeymzVVe+qwJ3jA5GCe7CXZ+HA/lmQ+BV/kSzEN5MOmCN0w3KyV4i6F133yx8+oRBI8XEKTjecbxrYLd3ypjh9fu73hZsdeusl1xWIP658P0EsEbdpmdFbrjKD9fHRG8YaVZqI9je3VE8IaVZKUF75D/uVkkSu3S7ugjMOaZjRiPi3ie17eH4uzQ/BODix2pO0wHEbxhYongDbNABG9YSSZR8EL87z9qsCMoI74q531I7IbZJYI3TCwRvGEWiOANK8mkCt4QFpsI3jCxRPCGWSCCN6wkEbxhVojgDRNLBG+YBSJ4w0oSwRtmhQjeMLFE8IZZIII3rCQRvGFWiOANE0sEb5gFInjDShLBG2aFCN4wsUTwhlkggjesJBG8YVaYOMFL5IQAP0cz5CeLzXIL3voh9KE+r3b85z1BZehcGGYSBMdQu2YB83D8v0XOGvG/MCuY79nhDRMJB80O7+oiO9c7jwV/OfxuCNd1/aF2zQqz7rOTIHiH2hXCYjNxO7xDjQyzSQRvmAUieMNKEsEbZoUI3jCxRPCGWSCCN6wkEbxhVojgDRNLBG+YBSJ4w0oSwRtmhQjeMLFE8IZZIII3rCQRvGFWiOANE0sEb5gFInjDShLBG2aFVS14/WwVUTR0ro98GDrXhxDZkXzTxqT2OYJ3x2GroXGcKz3sePxYaqZZ8C7UxubKSpZfDSx0fk+y4F3s+KUuPjF0bnsMtWMW/GvSWIg/rGrBu3nz5u7ll18ePFdwxk2bNjXmc0znnnvuuVbnLDkwB3j++ee3a8ch+pPdcd8RHW/duvVDwcWxtMq3vWDhXATv9mGnF198sduyZcufSzeufLqfHj5ATGCf+XxwiPLb8me/q1w+Pe73Pte5uZhmwbsjMXouzJFnnnlm2+/kDuXZHsqbG7taftJhoxdeeGHw3I4yyYJ3MeMXH1CX9W5n/YGdlR2P2+Wf/bSwtFjndnX9VG7VCd5y1ksuuaR74oknti0uQ+jcNddc01133XVtIRrKA+cuvfTS7uabb5433zRhIRYsr7rqqhYEtrcwF2X/xx9/vC0myj3yyCNNNNYC7/j2229v41Np8ksTJNTx2GOPzbsYSY/g3T789c477+yuv/76bf/UAq7z5JNPtnnienPZedZgB/YQFzZu3Dhv/BhHWX4s6Hq/4447mk+zM9s/++yz7fOjjz7a6lW/NP4/VB9WWvDuaNzdGdiJWLn44ot32sZgL7HhzDPPbLbd2fLl62effXaLTf15MS2wkU2aG2+8cc4bN2lD6X1WWvDO5X/6x3f40K7cmI4jvt90003d5ZdfvlNrvHaY7xdddFGzt8/aok1nnXVWiwM7659h5ymb8/cah6E88/nJqhK8OqKxcHzXXXe1jtdneTheGUKQ8yJkIZ80E7zvoJz//fff784999y2CMpX5yadfj9qIkrTpzon3bG+Ow/H+mkiX3jhhe3u1eeyXeWpMv165Hv66ae7K664ojngww8/3J188sndbbfd1mxLRF922WUtsHh3DbtpAoa0q6++ut0VX3vttd1DDz3UrlF96OO6syZ4a5y0pcYP0vp+yzbGWD7vBNb999/fxgjS5XcjQwy7XqXLX2Pav16N/WpAu/t+WehL30bVv+qbY/13XGLM+Nd5ZeRBv371KGeeXHnllc2f3Sjybzca7C8f3654IzYZkxtuuGFbm4YwTisheF3zvffe22aPudAv/sEmlaY/leZ82c05x+rkc3yPD/rsvDJ9W0gbj8dQpzhyzDHHtBtj56u8c3OVd53+NY477rjuwQcf3Na2aYKd2Uj/2Fqfy07OOWY79p+v/+w35B9LDf/DXP5nnM2zil/9fNWf8k3Uef3Wp36fHXtZ388777xtftQvVzbz2XuVlW69cnNrLVOufI5/bdiwYV77hsXBONAbNINxYH+wvTFxbB0X043rUB38yLmFxtslF7zV2Xvvvbe7++6720QnuuwC6GA5omOLEiOY7A888EC3du3atkhxZM5JmPV3I6UJGnYDLF5zGWvSYA82MIjsY4FlB2n6413/2MM5izK7yW/Xo4KhHUBOJK3sKJ/PcB1l5GVfO7Qmv7tlTiYgsfGtt97axtG1CQFl7Kwbs/vuu68FG+0merVFOnurY7xv0KdZE7xsWzuHjuU1HnbK+a00vq08MSWfsbUw2EmU39i5GXTe2JcfCNqVzrbqcM5YqEcd8g21a5LQbnbQH+3ll+Xj/JiPlg9LY0/v+uy4/Jwf8kuf1aGMeMIebuKUdz3n2ImPsB0/lld546Jen+1EuqnTLt8U3XLLLa1d5lfNq/G+wOK5HH7Xh9B13bLRULugzfrAP2onC+whTf/5jT47VqaOxQ0289l4iTflr1WPOvl1pfWvq23HH398y2NuGhe758ZDXnlcR5rr8Avxvu/LJ5544rw31asZfse2bMfW3vkg35XOl93UidPGUP6helZC8Pb9z1gNtUt79cHY6p++1Vpk3L2bV2LaPffc08a58vEp/sYH+Ir85rq5aINHG1yX75j/8mgLv1YPn1O22qJeccU1Ye0SC0444YRWPoJ3eWB765zxqLjM3/m+8bKJZiNOnrnKT7zg5fgc0kJz1FFHdaeffnpzvvo6wc6sQKf8Oeec0xzR+WOPPbY744wzuv3333/bIkWYCaKnnHJKq5uxjj766PbV2b777tuCg4k43oZJo4KBwbWY6JvdJYuChdZibHLL4wahRD9HIFBNevkFkwsuuGDbrlTtRqnHDpZ8golgoD6oj2Oxc0309evXNziS61vwBTVl2XTdunWtnPPOWZS0xTU571AwljYrgrd8nE/zT4GUj8qnbRZu6fyZvYyhNHkEcrY35vpgkTNPzj///HbOjRz/MP7mhF0z5V23riOdj8g3NBaTgraBb1rQ9NdNk5ss/mU+EJ2CodjAt918yctf+TM7iA+1+LGbuaBetnasDjZlf3WyqcWRL3vn93xXPcZNOyyC4gx/chOtHvZUv/k016K4XILXNaB9fMhiAeJoaMzL1vyCf/gWx5wVU0499dT2mU/qs3pOO+20Vq6OjQF/JUDE5ZNOOqntiInf7EKE8D91iL9ijHR1eC/Ba0yMpbJQl3b109xsux5f59/GXR7XnFbBy+/Yxlwg3viyY75aNxHGQTpbyT9Uz3IJ3r7/1U0QxmNhYcyISTHR2JZPKcv/+KK5yQ8POuig5lf8mg2MOz9QPzvwM+UPPPDANrdtfomP/Iv/iA/8lBaQlz+Vz/BF13VNNw7WMvnUt99++zXbTqN/TRrmc2ke/m4zja/7XHNArOIv1gP5x+tYFYLXROXcRx55ZFvAObA7O85qQnBEwkodFm8Lj0WOQ5sAhx56aPvMKdUjTVmLkK83LEjqI4wtnqtF8JqIBttCbnEQ2ExMA29g9Yt9CFA3BbULZjEwweWTxkHYjG04jHT1CSxuCMrBTHB2Zj+LvQWLTTlQX/ASBa7pWNs4JhwbI8GY6FU/0aHuWujG+8gn+j6yFLjGJAheQZiPGwP+SLSyGYFWvsy/BWOfja96pLsBMfkJsDVr1rTxNbbKWxAqmBszNxsWBOcPOOCANl5VzgIx18I4KfA5N2aEJ7tZwLRff3zma/y0YoO+82f52EM+gdM84Kdszebq4JM+O+bj8hJRJX6JWMGUv7K3PGzPhwnuih8WQePDltK0Z65Fkf95pMoN4lLCt7VbDDDO/KZ8cqhd2kssipX6Lr6wrZslokB5IkNsMX8IB+Xq2HWU5XN8i63YiY+r12d1Ggs3b8bCHFSHdhoz1yGg68alRHDt1pkHFfOc865vxI54xvenWfDyU35YgpDPszdfL3Gg//PNaeM/5C+Ljevsiv/xDWXcdHnXL/5lbZJmnNnAHOY//EUccLNlrTH/HPNhMZDPsZOy5rc5zYel7b777tvWuGpHtVl+tnVt/qdte+yxRwTvMmFMjX3pHGNubMVs/m5s6Aqxei5/5wMTL3gJAYLMIq0jPnNIwZBoFXSdV4djX3HYMbAAeZkIgqXztQN6+OGHt3yChN0YC44yAnoF3UnHJCNeDLI+EEbSBBOTkWNYnAkkd6UG2aRmC3aU1yJRDsShOJEAwjHYivNUGjvK79rSBJYaj/kEL0HArnbhjYEgJI96iAJ1Cyr9vkF7ZknwSufTAm75Ldu5IeGrXoIz2xN7hANbajf7GlefCTSiC/zAnJCf+NNXQb5u+LzzF20QyFdD8NY+fm1nsYQp+/Fh88Bn/a1jduCrgqK4oTz7E0yCJP9lO/bgh24WzCvzwkKnnPL9fMbKu0VXOwReY0SIl+CV17XqG4257KpNgvZSY57xh7oZquv2F/c++uEPRGwY8EnikW+JM4SUlznPTsaB7ypnLjlmO2KFLZQVC7yIC/YSbytNHODXrqmOErzKa6/yxtNLPtcXu5Xn0xU/+IUxOOyww1qb3CDq86T79K7AB8v/ja1xMJbsxkZu3Ox8ifl8d6gO8AFCou8ri4121brEH/r+Zy6av+PtMmbml7HnS2JVCV5+YayJUPXwSfNU/GYT84245b9uisxBL35m3ksXX73MY9cgYtXHl9i22uFz+TKd4V2bYVOCfafRvyYNPmLs+bZYLwbwD2uq8TeOtE6tiUN1GLNVIXgtJoIXxyrB0Be8nFUnBEE7EO7opHkJCDXxObbAYGdLPiJAHe5A7fauJsHLDhZsfTOB2UjgM6lNcItTCV6wsYDDUZSFoFgOxKaCgcAkv4W8vt6V5hyHE2CUkaaOccFbx2wqQFjcCFyLZp0niDlwBO+f9VW6m7ryW3Y3BoRBpRHAAjhh4CbmiCOOaLY0/mzJtvzYef0x3uaCPN71tYQEAeGd/Y3pahG8tQCVn0OfBD1+xj4leKWxhV1ePqs8O3sXF6T7TJyaS26SlREH1OM6JShcVz4CrOIQGxPD5oZr8nU2FlPMs5ob8wledVuk+eBSoY3arX98wme4rj4OCQ52YwfffOkfoWo+OxYXvPSZXdlRPFaPekuc8C8+Jc6KRV7syo/5o7bYbBDD+PuQ4GVL88K7vMbAmNRmhTFgZ/PBddTvq2v9niXBy37mMTFpTMR2vrw9QbbS/mftGWqXNo8LXjv4RLJYpbzHW/gI/9BPaXyALTzmIB6Ih9YzL37Hf/g1G/GnuiHj2975Xn8+VLxxHWusa0mXR5sieJcH9i7Bazz4tvkvZjgWH6xzBO9cN3irQvByJpPF4s7hTXQdF2Clc3ATSb6DDz64iYMSr14cVIAmdBmLMXzFRoAJugzk+tKUqaA76ZiIJr8JLMiXUDX4+qivdkBK8LKvAOPrQYuJ8hUcS/AKnhxHHk7FodwJ9wWvaysjkBmLWtTBjnZyqw2EmBsLtiYGOJtz8pTALjEx3j8Ors19H1kKXENfFmMi7AhsNiR4+a9dCT7oZkHwJZTYnyDwIjoIKXnr5oEPszM/ICp8natOedjZ/LBwVDphZyfD4lA7vBZKaatB8LIV3AzY/eav+llzWzp/L8FrXMUNPl03aeZNX/ASz/KLEWIK24wLXvnYXj7+SlC4HpuxvXZ4d44QtNPIt7ybA3PZVbo2LjXaqs3ay9/5oFjn3FC7pNfjCz6zORuU3b0q9rAX39V3c/2QQw5pNicS+Bvfq2+ZpInX/RitPmKk2qIeMYp/aqubPjc2BIoNDn5P7Chf64brG3cxza60WDfrgpdfm/vGfqgOsI3z5SdLhWtoG//jL+V/c7VNu0rwWp+Mr3dz1k0Y/zJfzWtzlm9Y5/kXn7Dui4vsAy9+pAwfdZ4/mqtunsROZfkeX692+FyC29yvdri+dpj30+hfk4Yx2Z7gFReI3rk0HJ/jixMteMv5OCvn57wmegVTYsAdn3TP4AhwHNrXDc5xSoHR3Z5FXZod3tr9lMZg++yzT8uzWgQvBAsLENFjYhK4BBKhZBHRRw4AA23A9d/CzTnYsS94CVABxULGFvIKpISCfBahEgiCUQXL2mljO3mU1y7BRTBWv7qleZdHmrod9wNMIY1PDPnKYuIakyB42ZEw8KgCuzlmmxKxbMVXtVWQZkdzglAQ2J1Xj0DOHwR/wsKcsRDa8ScSiADjKniotwSv49UgeMFWfFoM0A/ttvDxezcF3gXDujkwN2rx46f8no+W4JUuYPJP9iRSS/DWTRn/EEfYlL3cwKnLecKQ7dm8bq61STvFFmM4l13NGTc4fG850A6LNT8iQPR/aP6xmfP8id/ok90s5cRW9uOr7C6vGMxm/IvgdA0ioW6wCAV55XPDYUdNOr+tHTs21h7v8jgv3c6aPNqgTmJOWj3zLt67tps742F3Tzu1fT7br2bYiR+Xf7JNCV7H5oWbDHGbDY3RUD38b8hPloq+/xnHufxPPmuMOe68Gx2Y3/7AXB3in8/mNluYmzbGzGObX9YwPstfxQJpbCP+qpfv8Cvx1LX4FjvB9csXrVXio3c+TCCrZ++99141MXO1wwf4tHghLhtPY8Z/ayPCxoc4YMyHfGpVCF5wPBPE5LaAcDyLjMnt2IJlobJba/LrrElAmEnjlHXHa9Gqr/8ZQDl1yic4zxUYJhFt1Te72o45hMXeBCb8OYZFHTWR9ZvYlUfQkE85trA4WGjUaTHnQIRACS8B1SIukLpZMNHVyW5lO2PlWLBRt7GQziGlqY/TOcdRnR9yTmmzJHilEwsCKTFhTNnXOb4p0BIJ2mlc5OO35oAdDjc7zrGvcwSZfpkn6rboWfyIXeOpDertH/OHobGYNPiT/hA6Pmu/xY5P8ivn+L6AKC/YyXlCWcxwTpr+KuOYvfg92wua5gW/ZyO2ZUtimD2NBX8WS8wZY6W8ueGcepVn89pZHu8HSnAM+cpSUNfSPrGAneYac33iT/pQGw3mvxjDR8Vj58whPklAsJ+xqFjEp+prZvlLgLqmseDXfNdn48aG0C7la4zYVf19AStNeWNZ/m1MXF8546WPxn+8b6sdNtFHvss/2d884Its5JgNjcd86xr/G/eRpWTc/8zFoXYZY2uGbxi03ZokrlnXja/P/MrGjnc3N9Z489O6YuzlMe/4Gf8V4/iKuazuqq/awt9ciz35Oj/kV9povWRb+dTlOuXf0+hfk4Yxoj/4tthiHPm38a1j4yPGyyP/eB3mxGKs80sueMGpivrsXccqXed9rjTvO5vWv+ZqoPrQP+6/F+P5K63K9o/7dfTTvLOTRdDNAwes+qu+8fJDaepwoyEo1eI1jryzJnjtOhBb2lS2K5sV42mO67Nz20uvc5XmvY4rfTXQ7xuq/fVejOevtP658TKouvvvFj+LXX9narzOSuPXAq+bkjrnfZzlFryFa/KzudpV6EtReR1rN7FPhBLB/XxsI1+9Ey2EmTLOSys7QXm2tWPnpo94IdTMyfG8Q+XHz9d165zjaUUf++/947JLpQ+x3IK34H+uPdf48Anzxw6sz8ZUX8BvbdoQuo4JW3+oSPQop86an2WDSit7VF11rvKZt2Kwb8b4Ivhu+WK/XPlZWD7Y3XuNWf+4xrDSx1lVghfVqZ1JH/+8I2lhfghdd9kW/p21nfzKWyznuzuWj08M+cpi4hqTIngt9HYHLQT985Vn/PN42vbOzVcm7Bh2lS2sc/ltYTztPNhJmm9hNNYrIXjhUYpdjbvmixtWu2RERuXr56nPbuSIlxIN43lgd8Y3UXYjCRi7anPVN1fa0PkwPysleIsh/zNfzDF+41lvItTY1vj6TIR65MXGi11efujcXIJnZ9LsnNe3lhhf5xwPlQ2TzaoTvGEyWKzJPl89zs2K4K3+2lmY1q9gZ5GhcR5nJQWv6w7dXO0IfNSuLFG/PX91E0fAzpeP/xMyRebA8rDSgnfI/4w9wetZXIJz/Iax1g2bJh5f8HjBYj5aMO6Ldb2wuongDbvMQoPA9so7P0uCF84luE42OzM+O5J3tQpe6N+OiIz49eQyiYIX/IXfzOVfdb7IDVLYHhG8YWIR0GZN8IbZYzUL3rD6mVTBG8JiE8EbJpYI3jALRPCGlSSCN8wKEbxhYongDbNABG9YSSJ4w6wQwRsmlgjeMAtE8IaVJII3zAoRvGFiieANs0AEb1hJInjDrBDBGyaWCN4wC0TwhpUkgjfMChMneP3mHUEQAl8Y8pPFZrkFr36ZfAT9tOEfiggqQ+fCMJMgOIbaFWaD+F+YFay7EyN4QXyEUAz5yGLjOtnhXRz0K7vXO8ckCI6hdoXZIP4XZoWJ2uENYSWI4A0riQV/OfxuCNeN4JhtInjDrBDBG2aeCN6wkkTwhpUkgjfMChG8YeaJ4A0rSQRvWEkieMOsEMEbZp4I3rCSRPCGlSSCN8wKEbxh5ongDStJBG9YSSJ4w6wQwRtmHs5P8Pq5sNUsePs/vbIrDJX3WXv7aeHDLMTmmGbB+/rrrw+m7ypDPjpf+iywGP435BvLxVL5H99bCl9ZaPlZZa7xWE4ieMPMw/mffvrpNiFXs+B96aWXGrsSVJQZL+/d7+pu2rTpz+UPH2AcX3zxxcFzO8o0C162WSxfH/LR8fR+/llgsfxvyDeWi6XyvyHfm8uHdpSFlp9lXnjhhV2yWwll7zal6n81OCd9/LN8/fJ9+EMEb5hp3nvvve7ZZ59tk9HxUJ7FZCkEr0l/4403dvfcc0+3devWwTzzocwdd9zRrVu3blt5dT722GPd+eef39qbAP9hBFY3AzfffPOcgVza9uw2jYJXn90sXX755e3bk8X4loBfrl+/vrv99ts/5OPlu8aBz8634A2hrTtbZhLQ5ueff771m62H/EyeHfG/Id9YLhbb//QXV111VYtffKLO8ZVbbrmlu+222z7kQztKleeD/XrD/Jj//PThhx/eKbsZR2uzOPvcc8919913X3fvvfd2TzzxRPNtNzUPPPBA9+ijj26bD88888ycPh/BG2YeInfLli1tQi2l4K1JZmLOJ3gFBIG1Jq13n6WXcPBe5x07f9ddd7WA4rjS+sHFdcfTCvkfeuih7u67727H8rLFhg0buuOOOy6CdwD2sGshABMc7Ab2dc7xxo0bWxAesnmxUoLXNY2xBWCoXUX5jf5UmuNKc77665xj/eUzFjnzqu+T8vfrcf1+WiGt0tUpH1vff//9rX51FQ8++GBbDOW3AHqvNilXbZNe7VCHz+a+8tIqT7/MpKJ/mzdvbjZha+1F3/+efPLJlmd7/jfkH8vFfIK3+lHj7XOl19hXWo1b9Z8wNf+qvHPylw+Vvebzj2pH4ZzyfMz5KlftrOPx8o6rva7RT6v2TzLaXO30Xp/LBo4r3efqo2N5cOWVVzbbGfM6389Tad4hTZ3XXntt82M3GTZfrr766m0bO7feemt34YUXdpdccknLQwg7X+2saxQRvGHm4fwml8myFOJDfTCxLT7E0fhELEz0xx9/vAlXk7OCgM92K9zpKk9EEFvOO7ZoE1bSIE0ZdVUgcjdsYZdW9RbyaJv6tVN9xK6dkJNPPjmCdwD2MBY1JmxmN4J9fWYzQZ7oc24u+62E4CV0/bFmtX+oXSi/scDXYz/8g69Js5uib3a4HSujTsfe65sT11BeGX5W9UgjPiqtrstWrqFctaF2elxPnkceeWRbfdL4Pf8+6qijWp2ub3eZENaemn/mhnL1h6oWzWOPPbbV57rqUt71lKk2TRp9/+Nr+qaf4pjPzl122WWtf2wzn/8N+chyMZfg1V6+ww/EPvGoHxN9rjhpnNjBWNvtk2aclXeOGDKm8rATxHx5lPHus7F3vX7sHG+T8/KVT0pjX8faxu780DV9hjHhc3zMtaRpp00G+ecam0lA29itvsXSV/bTf/1yUyGffrALHyxbeGdHZQlX38SYd2zovHESA+QpH1WH60lnQz6s7htuuKFtyCgD+S666KJ2fQJY/a5z6aWXtrJDc1e5CN4w85gAJqqJSAwshgBRB9yJChAmpve5gpuAK1Aef/zxbVfVDgVR4t0ifvrpp3ennXZam+gXX3xxm/yu49iEv+KKK9q7wK68vMoJ3ia5r5ePOeaYVr/ruF5d26Jz/fXXd9dcc03L665ZPvnVpc1ztXtWEVD5zHXXXdcCNPvbXRCEBXYLmzE777zz2kI3l3haTsFb13Fdi5HFx8I1NLbSLEoWnKOPPrr5k/lh8TnrrLO6E044oTvppJOa31hgzj777FaOTRzLe8455zS/X7t2bXfqqac2fzr33HObLVzbzZQ0NrJYuZ46+OBNN93UbKrNfN1Cxj8JOCLlxBNPbNfny24qPNKjLd/5zndafeyv7cSsa1vsnOfXp5xySiuvjdr2ve99r9Vv0eX72qQP5lq1adJgQ3a30Isr2u9rfPHAtz3GVz8vuOCCJq7m879xP1lO5hK82kvwGK8zzjijO+KII9ojLWIiHzBGkMZXjRufNPbsYTeQkCLKxDB+IDaar/yFv6lXunefzVt5zVt1m7f9OCmWs7Hr8zu+oz3ErOs5z8fMF75pfPi5Y/UecMABTeTyX59dQ359ndT4qm3sxXb6ykb8i09ZU9jdzYe55LM5ZydXv+28wg0LwWpszGkbAeKO+cV/5XHeXPNYHV82n+3qsg+7mvuuIzbAuMqnfXzdMRsaX/FCmfG+RPCGMKKEqQBrEtYiQPzuCuoTHARRQU8wMJmdE0BNvP5ENFFNXIFWcCFSLcgCt4Bs4hOz++yzT0s788wzW9BVn2M7sYKJd+n77rtvu65gJJ3oIH4FCYGDeNGeCrLaKmDAInHkkUe28gL6oYce+qG84QOMVwX1ErcCveDO7sRT3YTMZzu2f//99z/kP0sBn+R7tXuifeXnQ+2S14JvYea/FnQiVH8qjaAiYNmBnypXx2wiH5/jT2ziHOGiXrYpYSpf/9lc765D7GgjEUdoWEwtkK7p5kJfys7Omb/8XDphXvOZECI0tMH1zSEimFgyZuaaMapjddZctED27TIp8D/9YxtjoT+1i+imi6BgE2nz+d+kCl7+R1TtvvvurQ/Gil8ZO/5CeBkvPkKMGXdxjm/ruzEXR/kYG/E96WIaUaQ+NuMr4qHP/Hu//fZrPulGQbl++/iCdCKMfyqvDwSWY+OgbdpB1BGA/JXfiatr1qxp7SOAK85rtzTj2e//pGAc2Fo/2MJcY2/zCnfeeWezZ91gsYv1zXzVR7Zkd/awvphb3t0wqN8Nsjx81liIp/xWGeLXho/rqk8eQti1xFn5KqYZK9e1Bvb/FqVPBG8IP8UkIOwERgGoFk2TZGcwsQhdC707UpNTPbXoeK98hTTBg7gUTE3aQw45pAVSAVR5OBZU7T7JQ8g4JhYEYu8ELxFMRFnkBXMBoNL0z86C6+mv6xNdgrOgJPCr08tOhLzaN9+iOYuU4BV0jbFgzKbG3rGF2c2FwD4UfItx/1kKXIc/80cLr7aNt2MciwwBQCAqZxfMjm0JTy9+RUCwA4GhXB1bxIhH88ACz5e8+JbdHP5IsHhZAC10JS74ZQkbc5EPEweua34ozy/Z1ty1CMPiSQCpw0KorOvacbMr5Try1TUt4uYIcWtu8H+iitBSjznVFzyTBP8jrPSDrY0D3yMoyheNFQE8n//p33gsXE7msq/xM+bGmT/oF78isGqM2YCPiZPeS/xL9+0B8cX3+LzrgPjkQ+zFv728+0xM8fFKc2PVv+FxrLx8fJff6IPr+NaDEDzssMOaQJdPG8rPzMO68eLX+qM+eebakZwE2NKNlblXwpKN9Yf/WS/MG/OeDWut4oPmoz4aS75oDlqz2N+xPssjvphr6jA/2c96TEgbb3UQuOykrOuxozWrBK/r8X9jIT5IH++LNqsrgjeEESaCCSEYWSxN6J3FpPVuoTX5BAt1SUcJkD4Cukl74IEHtrtkwVPAVEcJCeXsIljcSuRapIcEr10NgUUgEZQFXGn6R5xZ1F1vSPAK5gKXlwWnrh/B+2H6glfQJtj4DSwKBJtdSKJsKPgWxoOPjPvRYqKdFgyLjIWCP8J1+dPQ2PIJC45vFfgW33OTpZ+EvJedH311DX6iHvUSJCV4iQ1lXddLXfyRX0rjw/UoSF/8sJl54JzytYi6NttbGIlxwkOaz65NTPBrQts1iBa7dvpeO25e+qF/xkc+80War52rv+bTfGO3krABuxNUdcPFRvzOmBC85vP41/LjTLrg5VfG045f7YwSidLYQJp8fFm6z2KbmyRiyWfzU32uxU7GXTzkz15ipm8wxD5xl086lsd6UG1y3Be8bgLF1BK83s0X5Vy/8hHthLSy/LI2MQg+vmceTargNacJSfNLO81H6YSueWfOmFfli87xPXYmjNkdylnPjDnRylZig7I+uwEWp+Szbok/5moJY+OtnoqvxlabpJXgtUaydwRvCDtITQYTzkSrCbuz1C6vSW2SSjPZSmT2qaAiEJqwArnJKVD7GswiBgu8yS04+KpHW31dPC54BVjnfBaU1UmE6FPtmrhetaUveAUSC0ctBOrXviFRNMvsiOC1q2G3or9ojqOehfjZjqB+17EA2b0kDF1bu5wfb1OdIwiIVr4IdegTEenFX/id+viUuvTXLpdr1Q6vGyz+SkjwLT6mjtphIwYsdH07OXbeNx2uwZ8JBtd3zhxVRlkLYwle7eDPxoMI0Xfzylzg4yXWS/Bqr5tMbbPwEiDmRe1U9W0ySRiL7Qle/SUe2GCoDkyy4CXWDzrooCZ2zTF+JM2OvTgohnkkwM1c1WP87QSKe8aW4PXZeXbgQwQRf+EDXuzEjrXTu6OCt+Ik/3Mdc4uvsb38Yib7a5O6xQZ90X6xg585t71vgVYavubbHHOWAOVj5p1+sgP7ueFgQ3FCGXaqbxf001yV15ibZ46lmZfGka35szRrlDksX90MsJt2uCb/VrfrSWd3cdj4yK/cUFyL4A1hDkyKhWJyCXIW4vqqDRUU+pigBITAKYAKkAKmRVugEZztPqnPeYHVgu0ZNwKidiwcS3POAqEe9atXULBzJdhrW7XH7pbgUUJNEBZ4BPQI3mHYzaJlXCzGBEcJXoumwGyRKEE8dKMDgZ39h/xnseHX2mH3VdstNPxuaGzl47NulPgFn3HzRly4CSMavBOj8vMZfSUYiRSChI9aCJ1zrA7HbGRhksbPpBHGfZ907Frf/e5327W8XEt+AsYc8O0GASuN/+oPf+Xz5pL67QiaNxZqeQhmL+Pl2Nh4lMjc0VZl6uZPf7Vl3DaTgHZpr7EheOvrZPPXMRsTZvri/Fz+N8mCl/132223NscI2PrDMO8EF3/gA/yZDxA6/JUAEruITWnioPGUzl58R938jv94J6D4mbrr5sc1zM/ySceEnNjKpocffng7JrrrmzA7u+pwPcLNYw4ELv+yw2kctMGmBR+Uv7/5MIkYCzcPNU+JTH00h81pPkas6hcflN9miXHz7hw729U15uxP8IqP5qB6jK+YxG6++ZFPWXnY3jEbqofN2ct4+WxeW/eMj7nv5nroBiKCN4QlpCaWAEAACJJDYhcmMJEkgAiGFmrlLGqCi3SiVR3yCbwCikVNHgu6wGKyC/DOCUSCk8kv+ArgRIny0i0URI1jAUhAsgCpS15B3x34XG2eZYhE4oLd2NN77QoSZN6NlaBsMZ1LOLH3QgPwzuBaFgZjSuzN9UgDtNni44aLD1rs+CTfJDbAz9THZ9ycWcwsTgSXrz35lx1UN2RgG/7o+vxLGYuVNsgLbeKT4K/820KlLD9ma+Vc27yyQyZNvdpm4VXGeYuhdpgbBIe8bC6/RVx/LJquo8/y8H3zy43qpAoR9tL38j9zl03ZrPxP+9nYjcNc/ZhkwUugEpPGkK/pDz/gt8aHTxJJ+irWEb/Gmm28y9c/pz4CtHZUxUp+xGd85uts5xr8jF8SoxUn2dd1iesSVxUn5dVmQlq7zBnXUzfB6zoEMv8yRnzUfDA2yg3ZYFLgO/rPpua1uMCO+s3v3FiUL7KR/PKxrzzGiD3NwbKzY3YVH60xyoqn5qRxqzGw7qmvrsee2sJmFV+1i021i2A2vkM21bYI3hCWmJpg21s8nResTcx+GgReuwEChclcIqXKwOIhKAikJnalVz7vPitPmNgFseMrv0WzRJm82iBvlQvDlH3rfa60uVhuwQvXg2v3fW2I8fEvn+BDRC4BYBHr+1cd17tHGyxy4/ng+tItckQBf+SXFjHXkL/sWGUcV7srrdLlL9/tp43n639G1VftWy30+zNf2lxMsuAleOyc1njW2PTHqH8sX3+spdXxkL/IO14GVa9jAoo/umlzTOC6QdLufnlUuboOsW3HuW6yfPvhxkq/+9fxPun0bVOfx9PHz8/1efwdfbvVZ2uSm1Y3Ov0Ng6F6+It8biQI5yG7GqsI3hCWCRPNxK3gO4TJW1SaMoInMUDw+jyUz2QmeAVlAbZ/Dv0y6iFCYAdS/f38/bz9OsLOsT37GaflFryFRynsVA21q8+4Hzjma3a1fH1OsPbzVd5adGrRV6bq6OeXzw6NnaLySYtXv65x5jrXT6/joXx9xvPsSJnVwvb6wf+GfGO5cP2hdpXg5Ts+jwuYucas0obO1efx9PnO+VajYqRNgoMPPnjbtxRzlfe52uvbOrvT4rIbPzuV/bL9cpPOUD/7n8fZkT7Ol4cN2boeLRrKW2nO2y2Xf9xXigjeEJaZ7QneIUxoZQiMue5eoW5fo/l6yPFQnsJ5gRcWl6E8YelZScHrunMJju3BB900WcDn8sfCV5Z2cOfLx8f5Yfnk9vw3LA6TKnj5iq+8+c7Q+eWi4qQbQ48j2OV1czYuvIZQlmC2S+l5Xd+I7Ei58GdY93Z0vbRpM19e5yJ4Q1hGBMEdncDjbE9YQEDdkXxhMlitghc76mvyZKGfTCZV8GLSYpn2iN8748vaX/6febDzsNeO2mx7eSN4Q1hmFiJ4w/SxmgVvWP1MsuCdRHZFsO6MaAtLRwRvCMtMBG/oE8EbVpII3jArRPCGsMxE8IY+EbxhJYngDbNCBG8Iy0wEb+gTwRtWkgjeMCtE8IawzETwhj4RvGElieANs0IEbwjLTARv6BPBG1aSCN4wK0TwhrDM+K1RP09D+IYwCYKj/oo8zB6T4H9D8yKExca6S/AO+eHOEMEbwg7iB8xDKIZ8ZDnJDttss9KCF0PzIoSlYsgHd4YI3hBCWGXkkYYwCYI3hNVEBG8IIawyInhDBG8IO0cEbwghrDIieEMEbwg7RwRvCCGsMiJ4QwRvCDtHBG8IIawyInhDBG8IO0cEbwghrDKWS/D6OSA/gTV0bi52psxQvl255mpkoX2M4A1h54jgDSGEVcZyCd4XXnihe/nllwfPzcWLL764w2XkG/9nLsq/9NJLH0qbRnbWruNE8Iawc0TwhhDCKmM5BK8ffL/00ku7Bx98sP3ou53XoXx97Foqs2HDhvaPWobyoHY3r7vuuu7JJ59s1/JZmWuvvba78847u61bt36ozLTAjs8//3x32223zfmfG3dklzuCN4SdI4I3hBBWEcTue++9N6/gJZaIpvovRdIcE5QlpKQTlSU2672OnTvxxBO7u+66q+1GPv7449tEaJ2vutXpM2F8wgkndPfcc8+2uvv5+ihz4403bhO80Ldzzjmnid7l2MFeCdhi06ZN3R133NEEr35L817j9vTTT3ebN29uaUN1III3hJ0jgjeEEFYJBKF3gocgGhdBhUcCPI5AOD377LNNOD333HNNtBKvPm/ZsqV79NFHWx7CiwirHUfHhNepp57a3XvvvW038vTTT291yfPUU091jz32WHv8QD5CTZq6TjnllFaGILOT6RqVb7ydzmur9jzzzDONc889t7v++uunVvCylTFgf7ZkG/bWd+elXXXVVW2XWz75x+tABG8IO0cEbwghTDiELghDIpG4JJiGxJA8xOiZZ57ZxOctt9zSBNVpp53WHXvssd3NN9/c8l188cXd8ccf311wwQWtzvPOO6+JYoKrjs8444wmvLz/8Ic/7K6++uomes8+++zuqKOO6q644oomvO6///7umGOOafkOOuig9kgDQU4kH3300d0ll1zS6q321vvatWvbDi+hbDdZ/oMPPri76aabplbwlri3u81GbHrNNde08WBH9jVu559/fhvHoRsFRPCGsHNE8IYQFkSJMV+zh8WHbT0WUDu2RJJHB/xv+SEhJO9DDz3U/fjHP27C0S7hZZdd1l100UXdI4880p100knd3Xff3QTqE0880XZ9iVsCtnZ7ndu4cWMTsPfdd18TZ3Z7azfSrq1ne+Xz2TmijWDbbbfd2nlC7qyzzmrXkM81tU0bS/AS3NpE7BF42rLXXnu1602z4CXy9dmNRu2Is6c04+wGQdpQ+SKCN4SdI4I3hLBLlNAlvizidqLC4sKu9egBMei40r0PCSGi8oEHHujWrFnTPhsfO7sEqHoOPfTQbv369U1s+qMxgpiQJUrtPBK8ztlFJniJ2Ntvv70JUiLbdeUjhI888sgm1I477rgmmj0jbEfX9ZX1LK8XIeeP2UrEluAlvolzok89Xo61a5oFr5sJ9mAzu9z1CMqFF17YxtgjDcaqbhCGiOANYedYFMH77rs/GYWp90a8H8KS8P577w36XlgZCF0LrsWZMLKA27UKiwu72gH1h2MPP/xwszXsmhKdQ480EElE6sknn7xNOB9++OFNiHrMgchUB1FK5PojMcKLaK1ndMcF76233toeczD2hK4dXey3337ts8cR+IJrE6yErkcotNnryiuvbMJuXPBqY7XV1/d2tF1nVgQve9t5Z3M7924M2JG9tvdLFxG8IewcCxa8xO7bo7v+l197o3vp1RAWnxdfeaN7/c2tTWQN+WBYXkrsEkS161jPZ5bACosDccSuxC3hW48cEELODwmhvuBVVl4id926de18/baufEQWIexxg9qlleY5Wtcqwes5YEL0/fffb3X5ozJi7bDDDmui1g6y/Np7xBFHtN1ajzMo56UsETcueNWlfIlk9fuVh1kTvMajL3g9G228s8MbwuKxYMFr923jppe6Tx1wQfex3c/qfm+vs0NYVD7yg9O6Yy6+rS2cQz4Ylhe7cJ49tMtITNWjDWFpYO96XpdAKtE7lxiSbteVcCQsPdJAoNqFtVNLhNo99nyvRxXks7tqR9azo8SW53Bdq36lwW6wxxfsOspnt/aGG27o9t1339YejzsQtercfffdm1jzyw6u6Y/kiOoScH0hT2RL9zNkRK8ynuFV9zQLXvYnbtmYLUvwOnZDYrw8guL56Lo5GCeCN4SdYxEEb9c9tHFT93f+8JDur/zW3t3PfnTfEBaV/8d//XH39TWXNl/zjcKQH4blgQCzYNvZJXaJsaF8YfFhayLH85521+cSQ8bHzQjR5DOB6Rldf7hm17d+aYG4IjKJVGNJ1BK4RK88BJhzxprA9msO0j1zS/RefvnlbSe2HmvxuITdSs+f+uza8rimZ4arHQSdd/1QnmCWRjTDTrBraFO/X9MCO7hh9OsXbOemg33ZwDHxSxDXc7xz7eRH8IawcyyK4H34qc3dP/70Ed0v/O4B3d/8g4NCWFT+8m/t1X372Cuar0Xwriy1uwtfPw/lCUtH7fraKSWMhoTQECWaCM0qV38oRTQX0pwfF9I+E2XOD+VTv891vsp4d00inIAmmgljPz/mlxiqXd779UubZdiAPdlk6DwieEPYOSJ4w8QTwTtZ2L0jULK7u3L0H3OYi3Hh6LNxq/Txz6jP/Tx1rp8+nm+uNMfSQfh6PMIf4NndHN+9rLzjdUwr1cd+X8eP57NDBG8IO0cEb5h4IngnAzuLngcleImtoTxheTAWBM+QEJpUiDc703yofspuKF/YMSJ4Q9g5InjDxBPBOxkQWXbgPHPpeChPWB5Wo+ANi0sEbwg7x6oUvL/4ewd0vzBi6Nx8/NLHDxy1cf/Bc2FyieCdDHyNbqH1E1l5nGFlieANEbwh7BzLInh//nf22/YX94shOP/Bpw7r/uGnD2/Hf2Ps3Fz8jd8/qPt7f3xo949G7fzlTwznCZNJBO9kUILXX/hH8K4sEbwhgjeEnWNJBS8xSlz+52+f1P3Wj87ofvNHp3f/8svHdH/94wd+KN+O8td//8CRcD2wO/LCW7sL1j3Y/e0/PKT7uZGY3hER/b//9j7d14+6vLvyjse6X/mTw9su8VC+MHlE8E4GRK6/GvfPCSJ4V5YI3hDBG8LOsaSCl6j8u398aLf+wae7La+82bjyjke7f/HFo5tI9ViC3d8SrMTsXxsd//zvfHCOMHbsndj9mY/u1/3ixw/obn5gVN/Lb7S03/jhad3v7nl29/Mf26/lU5cy6rGrq151/S+/vlt3yPnru5+8+173Tz+7pl33r43yyftLozr77Q6TRQTvZBDBOzlE8IYI3hB2jiUXvB4jeP6lN7pbHnq6O+v6+1r+bxx1WfdX/+c+3T/+zBHdv/7Ksd0/+eyR7flaZX71C2tGaceMROmR3d/75KHdv/jS0d3f/+RhrZ5//oWju7/zR4d019z1ePfE8y83MX3F7Y+OPj/W6vhbf3hw988+t6b7V18+pvtnn1/TBLR6PcagjiPW3tq9/PrW1tZf/L39u//fSHjLq56I3sklgncyiOCdHCJ4QwRvCDvHsgjeTS+/3h14zk3df/v+qS3/Xqdd3/2TzxzZXbT+4e7hp7c00Ur4/s/dzmzCWNopV93d/q3svU9s6v5ov/O6j+1xVnff6Fiei295uHtw45buswdf2L359jvdW+/8pLvw5oe6//Kdk7vLb3uke+ipLd3NDzzV/fr3ThkJ3UO7c294oLv/yc3d48+91D2z5bWRwD2k+/RBa1vahqdf6A44Z10Tx7v6qEVYWiJ4J4MI3skhgjdE8IawcyyL4N246ZXu9g3PdGvXPdS9tvXt7rd+dHq3+ynXdm//5N0met94653uoHPXNZHrdcEo335n3dQErdc3jrq8+8zBa9vxpw68oLtgJG6J2k+MhPCbo7JPbHq5+/HJ13b/4Vsndhfc9GATv++P8q658LbuE/ue18rd+vAz3cbNr3RPbX61+3dfP6677/HN3dNbXu1ufeiZkWj+Sfex3c/qfu6j+36o/WEyiOCdDCJ4JwuCp/6pQ5g98lvYIewcy/IM7yPPvti99c67Le95Nz7Qnre1E0vwEqeeq73m7se74y+7s+U5/Zp7un//jRO6j+99Tvv81SMv7T45Erpef7T/+d3aUZnHnnup+4d/cnh7tMEfsBFFyhDQl9/+aKvznBvu7/Y584Ymfu32HnrB+u6ZF17rPnXABaMF+/1uj9Ou737jh6e3egnsn/ntCN5JJIJ3MojgnSwIHqI3zCYRvCHsHMuyw/vUlle7i9dv6O585LkmbJ1bd/9T3etb3+nWjsTqpbdt6PYcic//9KcndVfd+Vj7H/0eQ/DYgdcXD7u4++OR0PXqC95/9OkPBO95Nz7Y/YWP7NEdet76kYh+rz0r/MKrb7Y6DhuJ3LdHYtszvkTTU5tf6b5yxCWtri+N3j0j7HXUxbc1wbujP3MWlo8I3skggjeEEMJqZZn+aO31kfC8pfvhSde0nVW7qmdf/0D34kiU/sdvndj92jdPbM/3Erz/ffR+3d1PdK+88Vb3zWMub/XvdfoN3X5n3diOPc/bF7xPbnql/RGb619/75Pdplfe6H53r7O7zS+/0Z1/04Pdbqde18r94b7ndSdfeVf3zAuvdh/f65xu69s/6dZcdGv3mZ8+NrH7KF92eCeTCN7JIII3hBDCamVZBO/Lr7/VHXvJHe1XEd55993uzOvu675w2EXt2d17H9/U3fPY800MH33J7d0dG55tz9b6g7LfHAnjZ198te3Wev7W65MHXNBdetsj3bMvvNZ+seH6e59ojy9ceuuG7oxr7+vee//97q5Hn+veff+97qL1D7U6PKP7zKjOLa++0cT3r37+qO6SWza0P3jz2WMOfivYT5X12x8mgwjeySCCN4QQwmplSQWv38n9O394yEjs3t4eS/jZj+3XdmqPvPCW7p99/shut1Ov7S4ZCdXz1z3YfXT3s0Z5LmlC1DO5nz3koiaY/3QkdDzn69GE4y69o/uv3z2l++7xV7Z/PuEnxzziYCd3zeiznePTrr6nO/mqu7tDzlvffef4q7q/+YmD2rO6/mDu0PPXt53mX/7Ewd1/+c4p3Vkj4a3uL4za5mfJ8jjDZBLBOxlE8IYQQlitLKngHcdPf8Hv5dbPgNW/+fVPIvDLP83b/tkERvnk+aDsh+tr+X56vsr00+u9f1zn63d/Xc+x+utcmCwieCeDCN4QQgirlWURvIRoCcomQH8qNh0Tmx8Izg9E7Z99/nCeKidfv44qs+3cT49bnhFDdbRyI8avFSaTCN7JIII3hBDCamVZd3hD2BUieCeDCN4QQgirlQjeMPFE8E4GEbwhhBBWKxG8YeKJ4J0MInhDCCGsViJ4w8QTwTsZRPCGEEJYrUTwhokngncyiOANIYSwWongDRNPBO9kEMEbQghhtRLBGyaeCN7JIII3hBDCamVRBO9DI8H7K588rPvZj+7X/jtaCIvJX/jIHt23jr68+VoE78oRwRtCCGG1siiCd8PTm7tf/fya7m/+wcHd3/3jQ0JYVH72o/t23zv+quZrEbwrRwRvCCGE1cqCBe97773bvfzaG93aG+/rzrn27u7c6+4JYVE546o7u9sf2ti9//77gz4YlocI3hBCCKuVBQvebbz1ZveTt0NYAka+9c7bb3XvvvvusO+FZSGCN4QQwmplUQTvO++807366qshLAlE1htvvBHBu8JE8IYQQlitRPCGiSeCdzKI4A0hhLBaieANE08E72QQwRtCCGG1EsEbJp4I3skggjeEEMJqZVUJ3tdee617/fXXB89tD+WUHzq3I2zv2s4vpP4wNxG8kwGR+/LLL3fPP/98BG8IIYRVxaoSvITPSy+9NHhuPqqc96Hz4xBX4+LWQj/XtQldZRx7j/D9MAu92YjgnQyIXHMggjeEEMJqY9UI3q1bt3a33nprd9xxx3WbNm3q3nzzzW0icz7keeKJJ7pjjz22e+yxx1q5oXwFYfbAAw90jz/++DbR+9Zbb3U33XRTd+qppzbh2xdvdXz77bd3l1xySffQQw/NuxM8S7ANgfTwww93mzdvnlP0std8NovgnQz8DrJxNP8ieEMIIawmlkXwEisETQlUwsdxfYbzxGgJnypTx65z0UUXdV/4whfaM4R2mR588MFWRn1Vf79O6coRoZ/73Oe6e++9t4nX8WsV9fnQQw/tzj///JZXfRb6c845p/v2t7/dBFy/HCG+bt267sgjj+xOO+207phjjmkCb3vCehZgu6effro75ZRTmk3K9oU83jdu3Njy9ceuz/YEb4Tw8kDkPvPMM208InhDCCGsJpZc8FocX3jhhfa+ZcuW9k6I2inyucQqIWnnqJ/3xRdfbHU4JiAvvfTS7mtf+1rLc+WVV3ZHHHHEtjz98uqEdDuy9913X/fVr361vb/99tvb8jpXwgtV7rLLLuvWr1/fxGzt6J577rndD37wgw8JXu/qOfroo5v4vuWWW7qDDz64O/vss5tAqzbMKmWf6667rnvqqadaGnsasxondrIzLs9c9uIPcwlevofx9LC4sL254+bEjUtuMkIIIawmllTwEil2Y0844YTuwgsvbALVZ48m7LPPPt0hhxzSPfLII01Eelxg9913704++eQmkjy6cPXVVzcRtGbNmu7mm2/urrrqqu5b3/pWt2HDhm6vvfbqPvvZz3ZHHXVUE892f/fYY4/usMMOa+e1yc7r3nvv3dK+/vWvN1FKPNlx/NGPftSdeeaZTXyVgHUtguykk05qglr77ezut99+rR7t6wteC//999/f8nudddZZ23Z69VP5vj1mDf23I7h27druySef7G677bZmV77ArkSwR0eMr3G89tpr2xiMC9+5BK9dRnmJ5+w4Li3s68bz2WefjdgNIYSw6lhSwWtX1lfVdldBDBKjhOMBBxzQROfxxx/fxOznP//5tjtKNBKLf/qnf9qdfvrpTdB85StfaaLpmmuuaYKXcFVWnfITPM4ffvjhbQeYoFXOdTyGQFx7FMIzvETVl7/85XZ99arTzpX2ErIErzIEuLZ+8YtfbOWl7bbbbh/aFS5RbUeXHR599NH2/K+ydsJmXfAaf4LWjY0xc8NijC+44IJ28+OGho2Nm5sGO+TjYhcleIkuYqvwqInxIMIc98+FxcW4eBZ+6MYjhBBCmHSWXPDa4SMsiV1p/rjrM5/5TBOlBx54YPfd7363CSG7tXZGiRe7qNKJWQstkXvxxRc3cWqn1k6TP0Ijnjx2IM8VV1zRnXjiiU2YSie0vvSlLzVBahdWGzxHSmgRu0Rr7f7aqVVHCV6PLhCxBBlRTYBryw9/+MNtO7wgtF2TUGMDQoCo1jbnShjPKsafSGJzz1EbZ884s41dXjZmT2L3xhtvbGM5VA/By5Zs7Oak4HvK8xnH/XNhcTAmvgUxjt6zkx5CCGE1siw7vMTm5Zdf3r72v+GGG7pPf/rTTXQedNBBTQDZDSV6CFSfCczvf//77WtvO0rjgpdgIir9cZkXQfvNb36zPTpBxKrXTqv6CC1/4GbH2DO8Hk/wuISXnUWftXNI8BJl3/nOd9rCT6zZVSawtAnaRAgTBQTBPffc0/pBfBPRQzaZJcYFr8cZ7H5LZ6O+4HVjws5D9RibErZ8ozCuHpWws+64fy4sHDer5qZHT8yL2u0digEhhBDCJLNsjzT4QzAvO7weX/AYg2d1CSI7to7POOOMttNLmBKXdoEtuPL7g7W+4CWMiVUiyR89eWSB+CGu9t9//207vHYO1Vc7vJ4VVc4Cvueee7b8tUs8Lnjt8Cpn4fe8b/3RmvyeG/bHaoSWa2mP3V4iuP9c8CwzJHjt4rtZ6AtedjO289nMuPCRPsaAGLOrXj+XFRYPNmX3/JFaCCGE1c6SC16ChBglSn0dSiASmp6vJYSkE8EeLdh3333bIwlELgFJsNoJ/uQnP9kEr11WaQSv50DtFHsGmDD1rK0dX+VL0Hr21u6wev0smT+Q8+sLBLidYO/XX399E80ELyHm63O7unYi7RwSvNorrXZ4CV5CnlAjhu0U17PH+h2x+wHG382AcfEMr11+f5TIzm6A6hltv4DhkRfPV7O/tH498/3RmnFm93zVvvjUjm7EbgghhNXOkgpeIoXAtRPqlxkIRSLo7rvvbn/IRHT6OSq7f57nJVSJWjtKHkmQRiARRsrfeeedra56ppCQsmNLIBOoRLNfayCGXYuQtttrd9ZuMfFFTJ133nntFx28E7DSiCptJqBcUzvU4bEG7SDK7Eg6rw+1wwt9IYDrWeBxO8wqxt8NARvafb/jjjvazYkbAr/YYOzlMdZuGAhe5SJ4QwghhLCYLKngLYjKEpQgeKQRrv08PhM7RZUDYeNdmvzOS/PZcZ2r9MpT+at87b7WtaT7ep2g9cwwYV3Xc77aVnVUvd6JNjuVHpkgyKSFD9Mfuzrup1e+ylOf+0gfErw+u/mQJ7uQIYQQQpiLZRG8RGaJRDiWRsQ4rs/9fP20Sq+0fr31uZ+v0uq4/17prg1Cy86xP5ry74PtNhNR/bzj9RZVB/rp4cP0x6Nv1/5xf3zGmUvwFhG7IYQQQpiPZRG8k45HFzyOgNoxDJPD9gRvCCGEEMJ8RPCGiSeCN4QQQggLIYI3TDwRvCGEEEJYCBG8YeKJ4A0hhBDCQojgDRNPBG8IIYQQFkIEb5h4InhDCCGEsBAieMPEE8EbQgghhIUQwRsmngjeEEIIISyECN4w8UTwhhBCCGEhRPCGiSeCN4QQQggLIYI3TDwRvCGEEEJYCBG8YeKJ4A0hhBDCQojgDRNPBG8IIYQQFkIEb5h4InhDCCGEsBAieMPEE8EbQgghhIUw8YL3tddeG0zfUVZ7+RDBG0IIIYSFMfWCN6x+InhDCCGEsBAmXvDefvvt3dNPP929/vrrg+fnQ5mbbrqpe+yxx5pgGsozHwspL/9TTz3VXX/99YPnZwl2fPjhh7uNGzcOjqObmvnGN4I3hBBCCAth2QQvQdMXNUQOESOtdnH75yv9sssu6x555JFu69atLU2Z/q5v1dNP66efdNJJTTS/9dZb85ava1eeej/55JNbedevMlVOnmK8rjfffLN78MEHu2OPPfbP5a86HI+3ZxrRxzvuuKPbsGFDs0vZwjtefvnl7vnnn/+QbfpE8IYQQghhISyL4CVqtmzZ0r344ovbRI70zZs3N7FT+YaON23a1L300kvb0pQhgKoex/JUWpV3TCSdeuqp3Z133tnaWOXrfOWXpm2OX3jhhfbZOeLstNNOa+WHBK8+yY9Krz4R2A899FB34okntnRtKRuU2HOs7f1+TytsVONorHwuIfv4449311133Zx2qHwRvCGEEELYFZZc8BIqdjrtlJ533nltJ494vPHGG9vu68UXX9zdeuutTQxefvnlTRQRQ1dccUUTj9dee217pGH9+vXdRRdd1MpcddVVTTQSQsocf/zx3dVXX92uVyLWewneu+66q+W/9NJLuxNOOKGJq9pNvOaaa1p5aa7rGj5rn3YOCV713n333a1uec8///wmXm+++eZW/4UXXtjEmx1NgpdwdswG5557busXOyinP7fddlurs+qfNtiavTzS4NGGdevWtTH0uAg73XDDDc1Ot9xySxv/GsMigjeEEEIIC2FJBS+hQwgSdUQNwUuYerb1yCOPbI8KEIinnHJK2+lcs2ZNE52OjzrqqO6ZZ55pgvLRRx9tdXg8QJlDDz20PVdLiB533HHt6/JjjjmmiaoSpn3Be9999zVR7VryHn300U2APvDAA+2aBJg8hCjxSVzLox1nnnnmhwSvPhFpBBrBpl1ErPZos/Ku6dldO5fOy6+PRDWRS8TjjDPOaNe9//77twnwacQ4uIFx48NmZ599dhO+bi6Mw7333ttdcMEF7caGuB0vH8EbQgghhIWwpIK3djaJW2LSDigBaPeUkPQiLgk/4pKgLcFLyD777LNtV5TgJSKJJa9zzjmnCcq1a9c2Ie1FUBFNb7/9drt2CV47tESlMq7vZVf5yiuvbLvDnhEmpAhOZewwPvfcc60tROxZZ531IcGrTu0ibpUhltWjTwS9lx1l19V37VYPG9jVJbyJZTvLbKGv6uzbbdrQPzc6HvFgL+P4/vvvt2O2dWNgx9djIEPlI3hDCCGEsBCWVPASicTmHnvs0UQtEUkUEqceLyB67G7Wow4leInjccFLeBKSXkSqOuwU3nPPPS2NiJJnSPAq5/p2dL3stNpdJJB9ja6MvHaepdmN3XvvvQcFb4liYpXYJtzt6hK9RJs+ldC1o1nX3XPPPbfZwLs+2hm2w6wP0yx6+4LXTYddduK1BK/xNZ5z2SCCN4QQQggLYcl3eIkcoo6o8Qynr/cJTmLPi/ghKu10eiyBuCF0jzjiiLbTWoKXcK0dWo8F2OH1Xru+xKbPQ4LXV+bEMXHrVYKZ6FaOkFLOLjDB++STT7YdWb8OMS544dgusTbaKS5B5/perue6vrb3rp6qT936pQxc36MW2ou6xjRR9plL8LKL8ejbuE8EbwghhBAWwpI/w+uP0TyHS+jY+SR6vXskgNCx22k3lKjx3KxndIkjO6JEMDFI8BK+HgVQtgQ0ASvNsWvYafW1OOHo2gS3nVgClLiycyuvXVY7y3Z+XdOx3VzniWDCbL/99mt5Tz/99CbQxuu1s+uxBM8ZSydu1eWduCZkq12eY9ZObdB+X+E751gf9K3sNW7DaYBYdWNQz/AaY+LVYyCO+YQbDbbkB+PlI3hDCCGEsBCWVPCCOPTHZISfxxQIHDt5dlmJQGLPbq8dVgKIaPTZbqmv/S+55JL2x0x2WglVZYhS4tCjBYSSMnZc7R5LL2FKJMlLhBJNHp2QV5o88vtFBeLbrrNHD1zDtT0f7BGHEmrarIw69cvOrV1bu9Iej3A9AthnbSX07eY6xwZENxuon9D2qAcxD7ucVe80wjaeXSb0Pb7BznyGX7jZMDZucjwikl9pCCGEEMJis+SCt8Snr/EJ1/odWmLTc7tEDyFKFMovD6HrPKEjP7FDYBJNda7qdZ4wlVc60UlkErJ2lZ13rp9XPp9BYElTrzo9TqFdyhSEK5FMVHtW17GdaTuTBNwhhxzSyqlPXcSuNruOZ5L1y7mygWvCsXLjAm8a0d8aoxq//rGxsaMvz3hZaRG8IYQQQthVllzwgqAhWFDijgBU1k6nHVHnpNU7Kp/dVY8m2AkleupcnSeWlSOaPDbgcQJ4FMH5/jXlHSpfaePXd85X7X5GzC6kZ4cJXjvNTzzxRHskwc5tidwqr6zr1nHVDelDNplmqs9FP81x3+bjRPCGEEIIYSEsi+CdCyLGs7O+yp5L7EA+AtajCbUTPBfEsedtPSKxvbw7irapE/pKgNlFJsLtPBPt2jhUNiycCN4QQgghLIQVFbwgZjB0ro+vvnck33JAAGuPRx/s7M4n1sPCieANIYQQwkJYccGL+lp7Pvpff08C2kLoRuwuPRG8IYQQQlgIEyF4Q5iPCN4QQgghLIQI3jDxRPCGEEIIYSFE8IaJJ4I3hBBCCAshgjdMPBG8IYQQQlgIEbxh4ongDSGEEMJCiOANE08EbwghhBAWQgRvmHgieEMIIYSwECJ4w8QTwRtCCCGEhRDBGyaeCN4QQgghLIQI3jDxRPCGEEIIYSFE8IaJJ4I3hBBCCAshgjdMPBG8IYQQQlgIEbwTzGuvvTaYPmtE8IYQQghhIUy84H399dcXVfipa6i+udJXkklrz0JYiH0jeEMIIYSwECZe8N5zzz3ds88+24Tv0PmdgWh67LHHuoceeqgdV7q6n3766e6+++5rx7tyrcVoX0EYbt68uVu3bl334osvrnrhyzaPPvpos/GQnbYnhiN4QwghhLAQlk3wEjp9UeO40iq9f77OXXzxxd2GDRu6N99880NlhuqptD799Lfffru79dZbu+uuu67bunVrKwfHDz74YHfppZc2YfX8889vKztUfz+t0rdXZpy6NvppymjDxo0bu6OPProJ36G8O3KNSUF/2N2NRo1jn5dffnlbP4fKR/CGEEIIYSEsi+AlZIgawqUEmveXXnpp23E/fx9Csr/LqYzjYjytX3Yc57ds2dJt2rSptUl7qg2uQXQ5f+GFF3bPPPNMy9/PU/V7r/6UQF67dm17Vy/m61uVrzqkVRmfCfCnnnqqO+6441qbiETp8itbdVb+ft2TCrv2x1FfvLPfk08+2d10000fyt+n7BzBG0IIIYRdYckFL7Hm6+wzzjij7dYSPtLs+J122mndVVdd1d19993dCy+80F177bVNxDm2Cyuvr/U90nDHHXe0vKeffnoTRwSi+uU75ZRTWlpfXLrGI4880soTkMSoPHfddVd7dIHoJVLV98ADDzTR5Rra9f3vf78788wzW5k777yztVPbCS91XnPNNd3555/fXXDBBU3Eucb3vve97txzz21tVv+pp57a8inTbxfh5rGKc845p11bHUStNrgOsa3/BDfBq379Vzeee+65JhavuOKKlv/mm2/eZotJRfvuv//+9kgDX7jtttvaWHtnnxtvvLE76aST2mfj37cXInhDCCGEsBCWVPASOsQK8XfZZZc10XvDDTc0AXfkkUd2119/fXfssce28wTomjVrmthzfNRRRzXRd/zxxzeRdPLJJ7c0ZQ499NAmUD3fe8wxxzTB5Ot/ooq4dW3vvkJ3nliS1/W1A4QyUUswErHELgGqzP7779/dcsstTWxKl0f99957b0vfbbfdmsg94YQTWn88DrHvvvs2Me1RBG1W/4knntjSqk2EnLacffbZ3SWXXNKuR9Syh3eCnoglZglb9RCAhHkJ7Msvv7y1ybW15fbbb/9zAnHS0Gd9Yid2Y3e21C9jy0bE/BNPPLFt57dPBG8IIYQQFsKSCt7a3SVuCTe7p3ZjCUhiz4sAckzkEr8leEsIErrqUI7Y9SKYiFy7oXYKvTx/S0B5Tte16xEBotHjAQSXvITolVde2T6fddZZLa/2E44+220lVAmvepTgrbfe6i666KK2Y0tkapuXfhBq2kuAqocYVV477ArbyR1vk34StAT6eeed18S4fhJ0nldWF/Fn15OAJvQJfMJcWXbQhtotL3tPKsTq1Vdf3W4mjLebhPfee2/bjvvjjz/exH7ZaZwI3hBCCCEshCUVvHY27eTtscceTUwSa8QqwUmgvv/++9tEn8cHSvASneOCVzniyMsuJ8Fqp9TjEF7Ek2v0RROhSpA6J+/DDz/cRKsdXtcjTIlLgljdyhOirq0NBCqBpqxdX6KNaNdeL+LXsXZqO/FJUO+1114t/YgjjmgiXDu0x04sCHyCnQ3YQvvs4BKBdrW1S1uJfAJ4n332abvgBHDtfKvfsf4Tg9XnSaQveN0keExEX+vY+BrPufoRwRtCCCGEhbDkO7y+xj788MObsCXi7EraaS3RSPAQlASoxw+IG6LTrrD3Ery+6icwvYjIqmP9+vUtrT6PC17n1aG8XVsC024tsW23VRmimHDUjhK8ymuzRxm0W3llCV75lVe38iV4CXwC2bHdWOXU13/kQJu09eCDD25l2UOdHrcgAu3kEuH6rN2e9yWc7Ryrz84v8UeMq0f7PHrhc11j0hgXvPpCvLJVX/DWox/jRPCGEEIIYSEsqeAlUurxBILSHy0Rh/5Ay+6kz77yt3tJjHqGl8i0+7nnnntue1SgxB/RaTe2RKidUWXVaVeUmKrdVBDc8qvLripBaXeX4FXGTinRameXCCM67TBrh2uWeJWmD3aWiW7CmOB1Pe23G0yU+mqe0JWXUCVeXacvRrXPow52d4l8NpLPNZUlqtWpba7NBvqtr9I84qBPrsUGbhLkmXTBq1/1DK/HR4hXfWJ3It5NjH4MlY/gDSGEEMJCWFLBC6KTSCTMCDi7mdL8AZbna1HPudoFJPw8vkB8EpLyEXlEqXPy+/rfrikhKp0Atutqp1PdxFGhDQSoRw2IVGIadhalq8+vKhBjhKhdRs8GE9B2JAlqaI9fESDcCV/iy2MQBLQy2qQMEeuxCW1Stzr0rdojL3F32GGHtfyupS/a5yZAGjFL/BHWxJ4bBLZTp7YTum4EtN8u7ySLXeg3oesmgt3Zu5539siLmx029WyyXff+jjgieEMIIYSwEJZc8BIvsItJ8PgKn3ghVqURPb7aJ1QJG3nsijrvc+1e2qG1G2t30zlp6iGK7YwSu/ITVv4ACuqWTx31tb+y0A7ltEH7CK16btd5O7SEmEcSHEtTB+RTpo6VUV+V0e/+Dq8/0iLmiVPHBDSh54/VPNogr77ou11cx9V3dflsN1x7XU9blanrjQvESYT9tJvNStSWPdlPv/Rdv8fLSmODCN4QQggh7ApLLnhB3BC0djeJG2neCRiPMNjJJGggj/d+Pmn+YMuOqscS6lz/vPqJJ7urHlmARw7q2vIRTt6LKicPpFWdla4tVX4831CZSndsZ5dotXtp99husJ8jszNbAtaura/0taX6rg70j9XnfLXDZziuPJNM337V5v6x8/3+9ongDSGEEMJCWBbBOxcEG9Fn97OE4xDEjmdePXZA9A3lKZz3nCzUP5RnOSHoqk3s5DPx65EEIt6OdInBofIhgjeEEEIIC2NFBS98JW9nduhcH3nqcYHVDHHrK32PZvgKv7/LGYaJ4A0hhBDCQlhxwUvszbe7W0zTLqi+EHCI2N0+EbwhhBBCWAgrLnhD2B4RvCGEEEJYCBG8YeKJ4A0hhBDCQojgDRNPBG8IIYQQFkIEb5h4InhDCCGEsBAieMPEE8EbQgghhIUQwRsmngjeEEIIISyERRO89Z+/QlgK/OOOId8LIYQQQtgeiyJ4QwghhBBCmFQieEMIIYQQwlQTwRtCCCGEEKaaCN4QQgghhDDVRPCGEEIIIYSpJoI3hBBCCCFMNRG8IYQQQghhqongDSGEEEIIU00EbwghhBBCmGoieEMIIYQQwlQTwRtCCCGEEKaaCN4QQgghhDDVRPCGEEIIIYSpJoI3hBBCCCFMNRG8IYQQQghhqongDSGEEEIIU00EbwghhBBCmGoieEMIIYQQwlQTwRtCCCGEEKaaCN4QQgghhDDVRPCGEEIIIYSpJoI3hBBCCCFMNRG8IYQQQghhqongDSGEEEIIU00EbwghhBBCmGoieEMIIYQQwlQTwRtCCCGEEKaaCN4QQgghhDDVRPCGEEIIIYSpJoI3hBBCCCFMNRG8IYQQQghhqongDSGEEEIIU00EbwghhBBCmGoieEMIIYQQwlQTwRtCCCGEEKaaCN4QQgghhDDVRPCGEEIIIYSpJoI3hBBCCCFMNRG8IYQQQghhqongDSGEEEIIU00EbwghhBBCmGoieEMIIYQQwlQTwRtCCCGEEKaaCN4QQgghhDDVRPCGEEIIIYSpJoI3hBBCCCFMNRG8IYQQQghhqongDSGEEEIIU00EbwghhBBCmGoieEMIIYQQwlQTwRtCCCGEEKaaCN4QQgghhDDVRPCGEEIIIYSpJoI3hBBCCCFMNRG8IYQQQghhqongDSGEEEIIU00EbwghhBBCmGoieEMIIYQQwlQTwRtCCCGEEKaaCN4QQgghhDDVRPCGEEIIIYSpJoI3hBBCCCFMNRG8IYQQQghhqongDSGEEEIIU00EbwghhBBCmGoieEMIIYQQwlQTwRtCCCGEEKaaCN4QQgghhDDVRPCGEEIIIYSpJoI3hBBCCCFMNRG8IYQQQghhqongDSGEEEIIU00EbwghhBBCmGoieEMIIYQQwlQTwRtCCCGEEKaaCN4QQgghhDDVRPCGEEIIIYSpJoI3hBBCCCFMNRG8IYQQQghhqongDSGEEEIIU00EbwghhBBCmGoieEMIIYQQwlQTwRtCCCGEEKaaCN4QQgghhDDVRPCGEEIIIYSpJoI3hBBCCCFMNRG8IYQQQghhivlJ9/8HVKocQ4yPrm4AAAAASUVORK5CYII=;" vertex="1" parent="1">
          <mxGeometry x="44" y="-100" width="762.37" height="440" as="geometry" />
        </mxCell>
        <mxCell id="6WtYtiZ7n4FZfpU9vCdZ-8" style="edgeStyle=orthogonalEdgeStyle;rounded=0;orthogonalLoop=1;jettySize=auto;html=1;exitX=1;exitY=0.5;exitDx=0;exitDy=0;entryX=0;entryY=0.5;entryDx=0;entryDy=0;" edge="1" parent="1" source="6WtYtiZ7n4FZfpU9vCdZ-2" target="6WtYtiZ7n4FZfpU9vCdZ-3">
          <mxGeometry relative="1" as="geometry" />
        </mxCell>
        <mxCell id="6WtYtiZ7n4FZfpU9vCdZ-2" value="Equipo" style="ellipse;whiteSpace=wrap;html=1;" vertex="1" parent="1">
          <mxGeometry x="60" y="410" width="120" height="80" as="geometry" />
        </mxCell>
        <mxCell id="6WtYtiZ7n4FZfpU9vCdZ-9" style="edgeStyle=orthogonalEdgeStyle;rounded=0;orthogonalLoop=1;jettySize=auto;html=1;exitX=1;exitY=0.5;exitDx=0;exitDy=0;entryX=0;entryY=0.5;entryDx=0;entryDy=0;" edge="1" parent="1" source="6WtYtiZ7n4FZfpU9vCdZ-3" target="6WtYtiZ7n4FZfpU9vCdZ-4">
          <mxGeometry relative="1" as="geometry" />
        </mxCell>
        <mxCell id="6WtYtiZ7n4FZfpU9vCdZ-3" value="Tiene" style="rhombus;whiteSpace=wrap;html=1;" vertex="1" parent="1">
          <mxGeometry x="300" y="410" width="80" height="80" as="geometry" />
        </mxCell>
        <mxCell id="6WtYtiZ7n4FZfpU9vCdZ-13" style="edgeStyle=orthogonalEdgeStyle;rounded=0;orthogonalLoop=1;jettySize=auto;html=1;entryX=0;entryY=0.5;entryDx=0;entryDy=0;" edge="1" parent="1" source="6WtYtiZ7n4FZfpU9vCdZ-4" target="6WtYtiZ7n4FZfpU9vCdZ-7">
          <mxGeometry relative="1" as="geometry" />
        </mxCell>
        <mxCell id="6WtYtiZ7n4FZfpU9vCdZ-4" value="Jugador" style="ellipse;whiteSpace=wrap;html=1;" vertex="1" parent="1">
          <mxGeometry x="80" y="610" width="120" height="80" as="geometry" />
        </mxCell>
        <mxCell id="6WtYtiZ7n4FZfpU9vCdZ-17" style="edgeStyle=orthogonalEdgeStyle;rounded=0;orthogonalLoop=1;jettySize=auto;html=1;exitX=1;exitY=0.5;exitDx=0;exitDy=0;entryX=0;entryY=0.5;entryDx=0;entryDy=0;" edge="1" parent="1" source="6WtYtiZ7n4FZfpU9vCdZ-5" target="6WtYtiZ7n4FZfpU9vCdZ-15">
          <mxGeometry relative="1" as="geometry" />
        </mxCell>
        <mxCell id="6WtYtiZ7n4FZfpU9vCdZ-5" value="Juego" style="ellipse;whiteSpace=wrap;html=1;" vertex="1" parent="1">
          <mxGeometry x="480" y="620" width="120" height="80" as="geometry" />
        </mxCell>
        <mxCell id="6WtYtiZ7n4FZfpU9vCdZ-14" style="edgeStyle=orthogonalEdgeStyle;rounded=0;orthogonalLoop=1;jettySize=auto;html=1;entryX=0;entryY=0.5;entryDx=0;entryDy=0;" edge="1" parent="1" source="6WtYtiZ7n4FZfpU9vCdZ-7" target="6WtYtiZ7n4FZfpU9vCdZ-5">
          <mxGeometry relative="1" as="geometry" />
        </mxCell>
        <mxCell id="6WtYtiZ7n4FZfpU9vCdZ-7" value="Puede tener" style="rhombus;whiteSpace=wrap;html=1;" vertex="1" parent="1">
          <mxGeometry x="310" y="610" width="110" height="100" as="geometry" />
        </mxCell>
        <mxCell id="6WtYtiZ7n4FZfpU9vCdZ-18" style="edgeStyle=orthogonalEdgeStyle;rounded=0;orthogonalLoop=1;jettySize=auto;html=1;entryX=0.5;entryY=0;entryDx=0;entryDy=0;" edge="1" parent="1" source="6WtYtiZ7n4FZfpU9vCdZ-15" target="6WtYtiZ7n4FZfpU9vCdZ-16">
          <mxGeometry relative="1" as="geometry" />
        </mxCell>
        <mxCell id="6WtYtiZ7n4FZfpU9vCdZ-15" value="tiene" style="rhombus;whiteSpace=wrap;html=1;" vertex="1" parent="1">
          <mxGeometry x="690" y="640" width="80" height="80" as="geometry" />
        </mxCell>
        <mxCell id="6WtYtiZ7n4FZfpU9vCdZ-16" value="Resultado" style="ellipse;whiteSpace=wrap;html=1;" vertex="1" parent="1">
          <mxGeometry x="670" y="770" width="120" height="80" as="geometry" />
        </mxCell>
        <mxCell id="6WtYtiZ7n4FZfpU9vCdZ-19" value="1:N" style="text;html=1;align=center;verticalAlign=middle;resizable=0;points=[];autosize=1;strokeColor=none;fillColor=none;" vertex="1" parent="1">
          <mxGeometry x="210" y="488" width="40" height="30" as="geometry" />
        </mxCell>
        <mxCell id="6WtYtiZ7n4FZfpU9vCdZ-20" value="N:1" style="text;html=1;align=center;verticalAlign=middle;resizable=0;points=[];autosize=1;strokeColor=none;fillColor=none;" vertex="1" parent="1">
          <mxGeometry x="380" y="590" width="40" height="30" as="geometry" />
        </mxCell>
        <mxCell id="6WtYtiZ7n4FZfpU9vCdZ-22" value="N:1" style="text;html=1;align=center;verticalAlign=middle;resizable=0;points=[];autosize=1;strokeColor=none;fillColor=none;" vertex="1" parent="1">
          <mxGeometry x="680" y="628" width="40" height="30" as="geometry" />
        </mxCell>
      </root>
    </mxGraphModel>
  </diagram>
</mxfile>
